<?xml version="1.0" encoding="UTF-8" standalone="no"?>
<!-- Created with Inkscape (http://www.inkscape.org/) -->

<svg
   xmlns:dc="http://purl.org/dc/elements/1.1/"
   xmlns:cc="http://creativecommons.org/ns#"
   xmlns:rdf="http://www.w3.org/1999/02/22-rdf-syntax-ns#"
   xmlns:svg="http://www.w3.org/2000/svg"
   xmlns="http://www.w3.org/2000/svg"
   xmlns:sodipodi="http://sodipodi.sourceforge.net/DTD/sodipodi-0.dtd"
   xmlns:inkscape="http://www.inkscape.org/namespaces/inkscape"
   width="71.022865mm"
   height="68.900414mm"
   viewBox="0 0 251.65582 244.13532"
   id="svg2"
   version="1.1"
   inkscape:version="0.91 r13725"
   sodipodi:docname="explosion.svg"
   inkscape:export-filename="D:\PVC\graphics_png\explosion.png"
   inkscape:export-xdpi="99"
   inkscape:export-ydpi="99">
  <defs
     id="defs4" />
  <sodipodi:namedview
     id="base"
     pagecolor="#ffffff"
     bordercolor="#666666"
     borderopacity="1.0"
     inkscape:pageopacity="0.0"
     inkscape:pageshadow="2"
     inkscape:zoom="0.7"
     inkscape:cx="-57.766093"
     inkscape:cy="114.66104"
     inkscape:document-units="px"
     inkscape:current-layer="layer1"
     showgrid="false"
     fit-margin-top="0"
     fit-margin-left="0"
     fit-margin-right="0"
     fit-margin-bottom="0"
     inkscape:window-width="1920"
     inkscape:window-height="1018"
     inkscape:window-x="-8"
     inkscape:window-y="-8"
     inkscape:window-maximized="1" />
  <metadata
     id="metadata7">
    <rdf:RDF>
      <cc:Work
         rdf:about="">
        <dc:format>image/svg+xml</dc:format>
        <dc:type
           rdf:resource="http://purl.org/dc/dcmitype/StillImage" />
        <dc:title></dc:title>
      </cc:Work>
    </rdf:RDF>
  </metadata>
  <g
     inkscape:label="Layer 1"
     inkscape:groupmode="layer"
     id="layer1"
     transform="translate(-234.17209,-437.4374)">
    <g
       transform="translate(-640.48218,-519.78628)"
       id="g10571">
      <path
         sodipodi:nodetypes="cccccsccsccsccccssccsccccccccssccccccccccsccscccsccccccscccscccscsccssssc"
         inkscape:connector-curvature="0"
         id="path8386"
         d="m 986.30847,1144.6641 -2.8926,52.6452 -8.6778,-49.1742 -17.3556,53.2239 10.4134,-54.9595 c 0,0 -2.1695,4.1944 -9.6902,4.7728 -7.5208,0.5785 -7.6654,-5.3512 -7.6654,-5.3512 0,0 -7.6654,7.5208 -15.0415,4.6281 -5.6406,-3.1818 -10.7544,-5.4026 -8.2439,-14.6077 1.7355,-6.3635 3.0372,-8.8223 9.8348,-10.2687 8.305,-1.1683 13.3632,-11.4768 7.6654,-12.7274 -5.7852,-1.1569 -0.5785,-0.5784 -8.0993,1.7356 -7.5207,2.3141 -36.4467,12.149 -36.4467,12.149 l 30.083,-21.9839 -55.5378,21.9839 56.6949,-39.3394 c 0,0 -9.2703,-4.879 -13.8845,-9.8349 -3.905,-4.1941 -5.0621,-9.4009 -4.0496,-14.463 1.5802,-7.9011 3.4711,-8.0993 5.7852,-9.2562 2.314,-1.1571 5.7851,-1.1571 5.7851,-1.1571 0,0 -4.4835,-3.7604 -4.1942,-7.2314 0.3962,-4.7542 0.7231,-3.5434 2.6033,-5.7852 1.6632,-1.8801 3.0372,-2.748 7.0869,-2.3864 3.1095,0.6508 8.3885,0.94 9.5455,3.2541 1.1571,2.3142 -10.9918,-15.62 -10.9918,-15.62 l 18.5126,9.2563 -27.1904,-50.33119 36.4467,45.12459 c 0,0 4.0496,2.1693 2.3141,-1.3019 -1.7356,-3.4709 -2.3141,-6.3637 -0.5785,-10.4133 1.7355,-4.0497 1.4463,-4.9172 6.0744,-6.0743 4.6282,-1.1571 5.9298,-1.0124 8.9671,0.4338 5.2067,2.8927 8.0992,2.8927 8.0992,2.8927 l 6.3638,-57.27352 0.5785,55.53792 5.2067,-36.44662 0.5785,37.60372 6.36363,-3.4712 4.6282,2.3141 33.5541,-54.3808 -28.3475,60.7445 c 0,0 -1.7355,2.8927 1.7356,3.4712 3.4711,0.5784 2.5507,-5.8614 6.0218,-7.597 3.4711,-1.7354 4.9701,0.077 6.7056,2.9689 1.7356,2.8925 0,5.785 2.8926,3.471 2.8926,-2.3141 2.3141,-4.0497 4.6282,-5.7853 2.3141,-1.7354 4.6402,-3.3367 11.0039,-3.3367 3.7991,0.7142 7.1485,1.9447 9.1099,4.3915 2.8926,6.3637 2.1416,3.2666 2.1416,10.2088 0,6.9422 -2.0073,8.9846 -2.0073,8.9846 l 54.3809,-23.7192 -47.4386,39.3394 c 11.2809,2.9836 19.0102,3.8658 19.0911,12.1489 -0.1086,8.3754 -9.8592,10.1019 -12.7274,10.7026 -2.2713,0.4432 9.4009,9.9794 6.3637,13.5953 -3.0372,3.037 -8.0993,2.8925 -12.7274,2.8925 -4.6282,0 20.8267,10.4133 20.8267,10.4133 l -15.0415,1.7354 60.7445,33.5543 c 0,0 -60.7445,-21.4053 -64.2157,-21.9838 -3.4711,-0.5785 -9.8348,-4.0496 -4.0496,0.5785 5.7852,4.6283 37.6038,32.9756 37.6038,32.9756 l -45.703,-26.0333 c 0,0 3.0367,4.2248 4.6281,10.4134 0.6508,2.531 2.0971,5.4958 -1.5186,10.7024 -2.748,3.8328 -7.8823,1.4465 -14.0291,0.1453 -5.6597,-1.1986 -2.0971,5.9297 -5.7129,8.8222 -3.1819,1.5911 -4.3389,1.5911 -11.8596,0.434 -7.5208,-1.1569 -7.81,-6.2192 -8.3886,-8.5332 -0.5785,-2.3141 -0.3103,8.8434 -6.5083,11.5704 -3.6157,1.5909 -5.35,2.997 -9.25628,2.8925 -3.61215,-0.096 -3.47105,-1.7353 -5.78515,-4.0494 -2.3141,-2.3141 -4.0497,-5.7854 -5.2067,-9.8349 z"
         style="fill:#999999;fill-rule:evenodd;stroke:none;stroke-width:1px;stroke-linecap:butt;stroke-linejoin:miter;stroke-opacity:1" />
      <path
         inkscape:connector-curvature="0"
         id="path8388"
         d="m 948.89196,1053.6634 c -4.4411,0.7067 -8.23986,3.7074 -10.92153,7.1709 -1.30392,3.1231 0.0634,6.4798 -0.0646,9.7086 0.37553,2.6067 3.21527,4.2105 3.16278,6.9359 -0.75306,2.5986 -1.92354,5.2694 -1.26094,8.0219 0.21947,3.8097 0.88775,8.0102 3.88799,10.6863 2.27341,2.698 5.21482,5.4043 8.97806,5.3609 2.74302,0.3843 5.53901,2.0749 8.28039,0.7474 3.00596,-1.61 4.03694,2.1251 6.39966,2.8452 1.63554,1.0835 3.89845,-1.4054 1.28581,-1.7111 -3.36727,-1.4137 -4.46213,-5.2441 -5.02041,-8.5271 -0.4265,-1.7466 -0.31644,2.167 -1.098,2.8685 -1.46499,2.533 -4.64015,1.8827 -7.03351,1.5536 -5.46339,-0.7573 -10.03234,-5.5993 -10.33591,-11.1318 -0.37961,-2.3011 -0.22616,-4.6631 0.71584,-6.8177 0.97334,-2.1257 -0.0768,-4.3232 -1.52298,-5.9105 -1.44313,-1.7193 -2.92876,-3.899 -2.22962,-6.2577 0.331,-2.6329 -0.30182,-5.621 1.43554,-7.8827 2.11974,-1.5369 4.67718,-2.3246 6.78761,-3.8764 1.80834,0 3.42958,-2.847 0.71101,-2.9495 -0.73152,-0.2437 -1.46272,-0.4968 -2.15717,-0.8347 z"
         style="fill:#333333;fill-rule:evenodd;stroke:none;stroke-width:1px;stroke-linecap:butt;stroke-linejoin:miter;stroke-opacity:1" />
      <path
         inkscape:connector-curvature="0"
         id="path8390"
         d="m 1029.6968,1055.5195 c 0.9792,-0.9849 4.782,-10.1771 3.3659,-14.5005 -1.4165,-4.3238 -3.7363,-9.1233 -6.5278,-11.055 -2.7915,-1.9314 -3.9141,-5.0607 -10.2537,-3.3222 -6.3406,1.7395 -7.2199,0.1217 -12.4145,3.8502 -5.19454,3.7274 -4.39582,4.8403 -5.24261,6.0104 -0.84686,1.1699 -10.43913,-3.1888 -13.56908,-2.0672 -3.12976,1.122 -5.96909,1.4732 -9.65139,4.9587 -3.68183,3.4856 -3.76216,2.9819 -4.79081,6.2487 -1.02812,3.2672 2.66272,3.7105 -0.72915,6.4251 -3.39093,2.7158 -8.11457,3.5753 -6.46476,5.4827 1.65078,1.907 2.10619,4.1095 3.96122,2.7784 1.85527,-1.3313 2.30283,-3.058 4.37193,-3.6995 2.06912,-0.6413 1.69357,-2.3392 4.80371,-0.3554 3.11008,1.984 2.4444,1.0564 5.58299,3.8629 3.13853,2.8073 4.76444,5.8561 4.81249,3.5733 0.0481,-2.2832 1.87924,-2.4729 -1.60621,-6.155 -3.48564,-3.6821 -3.93726,-3.9202 -6.19625,-5.1096 -2.25886,-1.1893 -3.87204,1.6545 -3.61439,-1.9032 0.25762,-3.5578 -0.98863,-2.9442 1.76583,-5.7641 2.75447,-2.8198 1.82254,-4.1185 5.67035,-4.6312 3.84801,-0.5129 1.40338,-1.5691 6.1592,0.3583 4.75584,1.9273 4.2516,2.008 7.49043,2.2132 3.23909,0.2046 3.0293,1.4797 8.2239,-2.2483 5.1946,-3.7275 5.6139,-6.2767 8.2679,-6.4951 2.6539,-0.217 0.6046,-2.6822 4.8845,0.1492 4.28,2.8307 4.0095,0.4954 6.5673,4.8432 2.5578,4.3479 5.5384,8.111 5.133,16.5524 z"
         style="fill:#333333;fill-opacity:1;fill-rule:evenodd;stroke:none;stroke-width:1px;stroke-linecap:butt;stroke-linejoin:miter;stroke-opacity:1" />
      <path
         inkscape:connector-curvature="0"
         id="path8392"
         d="m 1034.8638,1079.0336 c -0.2858,6.0219 5.3466,10.2642 5.5376,16.2059 1.2436,6.4862 2.8043,13.9277 -0.9563,19.8848 -3.0311,4.4396 -8.0441,7.7888 -13.5748,7.5581 -4.8687,0.5783 -9.6197,-0.3819 -14.3813,-0.8726 -3.6663,1.6847 -0.936,8.2642 -6.2054,8.9261 -5.5818,2.0074 -11.6207,2.4967 -17.5102,2.1199 -3.64069,-1.4149 -8.16469,-3.0679 -9.38381,-7.189 0.48076,-4.405 7.70911,-6.6011 6.10467,-12.0327 -1.51329,-4.6532 -4.13999,1.3649 -4.41377,3.4305 -2.53448,3.8981 -7.90676,7.9368 -12.6474,5.6846 -4.53685,-1.9866 -1.56294,-7.2366 -3.74844,-10.0541 -5.47488,-2.4495 -4.24031,5.3289 -3.39869,8.3564 1.1189,4.8613 6.4608,6.3821 10.83469,5.881 4.83305,-0.8963 6.13251,3.8364 8.61066,6.6732 3.60484,3.4136 8.57609,4.8105 13.25049,6.0155 4.9227,0.4583 9.5881,-1.7952 13.9693,-3.7152 4.1307,-2.2532 4.5912,-9.8653 9.9675,-9.6089 4.7992,0.57 9.5208,3.3809 14.4154,1.6278 9.0895,-2.5752 15.1984,-11.6282 16.5072,-20.6735 0.9477,-6.2043 -1.001,-12.4237 -4.2989,-17.642 -2.0961,-4.0984 -4.5903,-8.1891 -8.6785,-10.5758 z"
         style="fill:#333333;fill-opacity:1;fill-rule:evenodd;stroke:none;stroke-width:1px;stroke-linecap:butt;stroke-linejoin:miter;stroke-opacity:1" />
      <path
         inkscape:connector-curvature="0"
         id="path8411"
         d="m 985.3416,1096.4105 c -1.10411,-0.4733 -3.9432,0.1585 -3.78548,1.7349 0.15782,1.5772 -0.94636,4.7318 1.41956,5.3627 2.36592,0.6308 5.52042,0.9465 5.83592,1.7349 0.3154,0.7887 -0.6309,1.8928 1.4195,3.7856 2.0505,1.8927 1.2618,2.9968 5.0472,3.1544 3.7856,0.1585 1.1041,1.1041 5.5205,0.1585 4.4164,-0.9463 5.6783,0 6.1513,-3.6277 0.4733,-3.6277 -1.5771,-4.101 0.4733,-4.2586 2.0504,-0.1584 3.6277,0.3154 4.8896,-2.0506 1.2617,-2.3658 1.4195,-1.1041 1.5771,-3.7853 0.1585,-2.6814 -0.9462,-3.6279 -0.3154,-4.1009 0.6311,-0.4733 0.9465,1.2617 3.6277,0.9462 2.6815,-0.3154 3.4701,0.6309 4.5742,-1.8927 1.1041,-2.5236 0.9463,-2.3658 1.2617,-4.101 0.3157,-1.7349 -1.2617,-1.5771 1.5774,-2.5236 2.839,-0.9463 3.3122,0.7887 4.7318,-1.8925 1.4195,-2.6815 4.1009,-5.0475 2.2082,-7.7287 -1.8928,-2.6814 -2.2082,-3.1547 -3.9432,-4.101 -1.7349,-0.9464 -1.8927,-0.6308 -3.1544,-0.9464 -1.262,-0.3155 2.5236,-4.1008 1.1041,-6.7822 -1.4198,-2.6815 -0.9465,-3.3123 -3.628,-4.5742 -2.6812,-1.2617 -0.7884,-1.4195 -4.8894,-1.5771 -4.1009,-0.1585 -4.5742,-1.1041 -6.3091,0 -1.735,1.104 -2.3658,0.6308 -3.1545,2.3657 -0.7887,1.735 -0.1585,5.2051 -1.2619,4.101 -1.1041,-1.1041 0,-2.0504 -2.839,-2.9969 -2.8391,-0.9462 -3.1547,-2.0503 -4.7318,-1.1041 -1.5774,0.9465 -2.3661,1.5774 -2.3661,1.5774 0,0 0,-3.1545 -2.6813,-3.3123 -2.6813,-0.1585 -2.2082,-0.9463 -4.5741,-0.1585 -2.3659,0.7887 -2.5236,0.6311 -3.9432,1.5774 -1.41949,0.9465 -1.57723,0.3154 -3.31222,2.5236 -1.73501,2.2082 -1.73501,0.7887 -2.20819,2.9969 -0.47318,2.2081 -0.63091,3.3122 -0.31544,4.7318 0.31544,1.4195 0,2.5236 -0.94638,3.7855 -0.94637,1.2617 -1.26181,-0.3154 -1.57728,2.6812 -0.31545,2.9969 0.94638,3.4701 2.05046,4.2588 1.10409,0.7887 -0.6309,-2.6815 1.73501,-4.4164 2.36592,-1.7349 2.99681,-1.2619 3.15455,-3.4701 0.15782,-2.2082 -0.31545,-2.3658 0.15782,-4.2586 0.47318,-1.8927 -0.31547,-3.4701 1.26177,-4.5742 1.5773,-1.1041 0.6309,-0.9462 3.3123,-1.5771 2.6814,-0.631 3.6277,-2.366 5.3628,0.3154 1.735,2.6815 1.735,3.1545 1.8926,3.9432 0.1585,0.7886 1.7352,-1.5774 3.4701,-2.0504 1.7349,-0.4732 1.2617,-1.5773 3.6277,0.1585 2.366,1.7351 2.0504,0.9465 3.1545,2.8392 1.1041,1.8926 1.1041,2.0504 2.0506,2.8391 0.9462,0.7886 -0.3155,-5.9938 2.0503,-7.0979 2.366,-1.104 2.6815,-1.8927 4.7318,-1.7349 2.0506,0.1585 3.1547,0.1585 4.5742,1.1041 1.4195,0.9463 0.9463,-0.7887 2.0504,1.7349 1.1041,2.5237 1.7349,1.4196 1.1041,3.6278 -0.6309,2.2081 -0.1585,1.104 -1.1041,2.9968 -0.9463,1.8928 -0.7887,1.8928 -1.2617,2.5236 -0.4732,0.6309 3.4699,-0.3154 5.3627,0.4733 1.8927,0.7886 2.366,0 2.6814,2.2082 0.3154,2.2082 1.4195,0.1584 0.3154,2.5236 -1.1041,2.366 0.6309,2.366 -2.2082,3.4701 -2.839,1.1041 -2.5236,1.1041 -4.4164,1.1041 -1.8927,0 -1.5773,0 -2.366,0 -0.7886,0 1.7352,2.2079 0.1585,4.574 -1.5771,2.366 0.4732,2.366 -2.2082,2.6814 -2.6812,0.3154 -2.2082,1.8928 -4.2586,0 -2.0503,-1.8928 -1.8927,-2.8393 -3.1544,-3.1547 -1.2619,-0.3154 0.7884,3.4701 -0.1585,7.0978 -0.9465,3.6277 1.735,2.8391 -1.4197,4.101 -3.1545,1.2617 -2.9967,1.5771 -3.9431,1.2617 -0.9463,-0.3154 -0.6309,-3.9432 -1.4196,0.631 -0.7886,4.574 -0.6308,4.4164 -1.7349,5.6781 -1.1041,1.2619 1.2617,1.5774 -2.2082,1.5774 -3.4701,0 -2.0506,2.2082 -4.5742,-0.4733 -2.5236,-2.6814 -2.5236,-1.2617 -2.9968,-3.3123 -0.4731,-2.0503 0,-1.1041 -0.6309,-3.3122 -0.6309,-2.2082 -0.6309,-2.6815 -2.8391,-2.8391 -2.2081,-0.1584 -3.6277,1.735 -3.6277,-0.1584 0,-1.8926 -0.15782,-2.2082 0.7886,-2.9967 z"
         style="fill:#333333;fill-opacity:1;fill-rule:evenodd;stroke:none;stroke-width:1px;stroke-linecap:butt;stroke-linejoin:miter;stroke-opacity:1" />
    </g>
  </g>
</svg>
