<?xml version="1.0" encoding="UTF-8" standalone="no"?>
<!-- Created with Inkscape (http://www.inkscape.org/) -->

<svg
   xmlns:dc="http://purl.org/dc/elements/1.1/"
   xmlns:cc="http://creativecommons.org/ns#"
   xmlns:rdf="http://www.w3.org/1999/02/22-rdf-syntax-ns#"
   xmlns:svg="http://www.w3.org/2000/svg"
   xmlns="http://www.w3.org/2000/svg"
   xmlns:sodipodi="http://sodipodi.sourceforge.net/DTD/sodipodi-0.dtd"
   xmlns:inkscape="http://www.inkscape.org/namespaces/inkscape"
   width="32.588551mm"
   height="48.502998mm"
   viewBox="0 0 115.47124 171.86102"
   id="svg2"
   version="1.1"
   inkscape:version="0.91 r13725"
   sodipodi:docname="princess.svg"
   inkscape:export-filename="D:\PVC\graphics_png\princess.png"
   inkscape:export-xdpi="99"
   inkscape:export-ydpi="99">
  <defs
     id="defs4">
    <pattern
       y="0"
       x="0"
       height="6"
       width="6"
       patternUnits="userSpaceOnUse"
       id="EMFhbasepattern" />
  </defs>
  <sodipodi:namedview
     id="base"
     pagecolor="#ffffff"
     bordercolor="#666666"
     borderopacity="1.0"
     inkscape:pageopacity="0.0"
     inkscape:pageshadow="2"
     inkscape:zoom="1.4"
     inkscape:cx="64.4187"
     inkscape:cy="29.220822"
     inkscape:document-units="px"
     inkscape:current-layer="layer1"
     showgrid="false"
     fit-margin-top="0"
     fit-margin-left="0"
     fit-margin-right="0"
     fit-margin-bottom="0"
     inkscape:window-width="1920"
     inkscape:window-height="1018"
     inkscape:window-x="-8"
     inkscape:window-y="-8"
     inkscape:window-maximized="1" />
  <metadata
     id="metadata7">
    <rdf:RDF>
      <cc:Work
         rdf:about="">
        <dc:format>image/svg+xml</dc:format>
        <dc:type
           rdf:resource="http://purl.org/dc/dcmitype/StillImage" />
        <dc:title></dc:title>
      </cc:Work>
    </rdf:RDF>
  </metadata>
  <g
     inkscape:label="Layer 1"
     inkscape:groupmode="layer"
     id="layer1"
     transform="translate(-419.40724,-557.86025)">
    <path
       inkscape:connector-curvature="0"
       id="path8073"
       d="m 476.65615,587.85034 c 0,0 5.334,1.2065 7.366,2.2225 2.01083,0.99484 6.13833,5.03767 8.14917,6.43467 2.032,1.41817 5.86316,6.26533 7.15433,7.15433 1.31233,0.91017 2.32833,3.13267 3.53483,3.64067 1.2065,0.508 8.36084,4.1275 8.86884,4.93183 0.508,0.80434 5.94755,7.06939 6.85771,7.66206 0.91017,0.61383 6.64633,1.524 8.36083,2.413 1.7145,0.91016 6.05367,3.83116 6.75217,5.35516 0.71967,1.50284 1.82033,2.62467 0.21167,3.1115 -1.60867,0.508 -3.2385,0.91017 -6.05367,0.61384 -2.81517,-0.29634 -8.5725,-1.2065 -8.65716,-1.82034 -0.10584,-0.59266 1.20649,-1.905 -0.61384,-3.1115 -1.82033,-1.22766 -10.58305,-4.953 -11.68371,-5.54566 -1.12184,-0.61384 -4.04284,-2.7305 -4.33917,-3.32317 -0.29633,-0.61383 -4.1275,-1.7145 -6.45583,-3.53455 -2.30717,-1.82034 -8.17034,-6.24417 -9.16517,-6.858 -1.016,-0.59267 -3.53483,-1.7145 -3.53483,-1.7145 z"
       style="fill:#000000;fill-opacity:1;fill-rule:evenodd;stroke:#000000;stroke-width:0.27516463px;stroke-linecap:butt;stroke-linejoin:miter;stroke-miterlimit:4;stroke-dasharray:none;stroke-opacity:1" />
    <path
       inkscape:connector-curvature="0"
       id="path8075"
       d="m 454.1986,594.36968 c 0,0 -6.56167,7.40833 -8.12792,10.26583 -1.56633,2.83633 -4.69897,7.26017 -5.84194,8.55133 -1.143,1.27 -6.56164,4.97389 -7.55644,6.83656 -0.99484,1.86266 -5.56681,12.10733 -6.13831,12.67883 -0.5715,0.5715 -4.84713,2.58233 -5.54562,4.14867 -0.71966,1.56633 -1.71449,2.70933 -1.56632,3.83116 0.127,1.143 1.14299,4.14867 2.70931,4.572 1.56633,0.42334 3.9793,-0.14816 6.11713,-2.43416 2.13781,-2.26484 3.13264,-5.3975 4.12747,-6.68867 1.01597,-1.29117 6.56161,-6.56167 8.27608,-8.40317 1.7145,-1.86266 4.57198,-7.5565 5.84198,-8.6995 1.29108,-1.143 5.56674,-4.27538 6.56158,-5.84172 0.99483,-1.56633 4.1275,-3.28083 4.55083,-6.4135 0.4445,-3.13266 1.43933,-12.7 0.29633,-13.97 -1.143,-1.29116 -2.56116,-0.71966 -3.70416,1.56634 z"
       style="fill:#000000;fill-opacity:1;fill-rule:evenodd;stroke:none" />
    <path
       inkscape:connector-curvature="0"
       id="path8077"
       d="m 439.31857,705.47266 c 0,0 2.56114,-2.81516 3.57714,-4.74133 0.99483,-1.905 3.28081,-5.73617 3.28081,-5.94783 0,-0.1905 -0.0635,0.762 0.889,1.2065 0.97358,0.46566 3.17491,1.62983 4.29674,1.67216 1.10067,0.0423 2.62467,-0.0423 2.62467,-0.0423 l -0.3175,3.66183 c 0,0 8.17033,-0.14816 10.9855,-0.254 2.83633,-0.0847 18.45705,-1.905 18.96505,-2.30716 0.48684,-0.40217 -1.524,-3.83117 -1.12183,-3.83117 0.40217,0 3.83117,-0.91017 3.83117,-0.91017 l 6.05366,11.78984 8.0645,-0.80434 c 0,0 -0.21166,-6.858 -0.80433,-10.58333 -0.61383,-3.72505 -4.33917,-11.57788 -5.1435,-12.89022 -0.80433,-1.31233 -1.31233,-2.2225 -1.41817,-3.02683 -0.10583,-0.80433 0.29634,-3.02683 0,-6.96383 -0.29633,-3.937 -2.81516,-14.52034 -3.1115,-15.621 -0.3175,-1.10067 0.78317,-6.47672 0.0847,-9.37655 -0.61383,-2.49767 0.71967,-3.85234 -0.74083,-8.17034 -0.97367,-2.8575 -1.12183,-6.1595 -1.69333,-7.85283 -0.5715,-1.7145 -2.3495,-3.19617 -2.3495,-4.61433 0,-1.41817 1.56633,-18.81689 1.56633,-18.81689 l -15.95939,-4.84717 -15.83266,3.429 c 0,0 1.143,2.13784 1.43933,5.2705 0.27517,3.13267 0.80433,10.01156 -0.21167,14.71056 -0.99483,4.699 -2.667,8.23383 -4.74133,10.8585 -2.68817,3.38666 -6.24408,11.64166 -7.11191,13.92766 -0.84664,2.286 -1.77798,7.40805 -2.34948,7.97955 -0.5715,0.5715 -1.56633,3.556 -1.84147,6.5405 -0.29633,3.00567 -0.14816,9.8425 -0.86783,10.56217 -0.6985,0.6985 -3.97931,6.68867 -4.55081,8.55133 -0.5715,1.8415 -3.55597,22.52105 -3.55597,22.52105 z"
       style="fill:#000000;fill-opacity:1;fill-rule:evenodd;stroke:#000000;stroke-width:0.27516463px;stroke-linecap:butt;stroke-linejoin:miter;stroke-miterlimit:4;stroke-dasharray:none;stroke-opacity:1" />
    <path
       inkscape:connector-curvature="0"
       id="path8079"
       d="m 455.5321,595.25868 c 0,0 -2.70934,0.84666 -3.1115,1.35466 -0.40217,0.508 -1.524,1.7145 -2.07434,1.67217 -0.55033,-0.0635 -0.65616,-1.524 -0.91016,-1.37583 -0.254,0.16933 -2.96325,2.77283 -3.25958,3.78883 -0.3175,1.016 -0.71967,2.7305 -1.016,2.96333 -0.29634,0.254 -0.762,-0.48683 -0.55034,-2.05316 0.1905,-1.56634 0.6985,-3.47134 1.79917,-4.74134 1.12183,-1.27 4.14858,-3.6195 4.59308,-4.23333 0.46567,-0.61383 1.35467,-1.82033 1.05833,-2.01083 -0.29633,-0.21167 -2.2225,0.4445 -2.51883,0.84666 -0.29633,0.40217 -1.16417,0.55034 -1.7145,1.60867 -0.55025,1.05833 -0.76191,1.4605 -0.84658,1.778 -0.10583,0.29633 -0.61383,-0.86783 -0.254,-2.11667 0.33867,-1.27 0.95241,-2.51883 0.65617,-2.58233 -0.3175,-0.0423 -0.91017,0.80433 -1.524,1.524 -0.59267,0.6985 -1.35467,1.9685 -1.75681,2.11667 -0.40217,0.14816 -0.65617,-0.46567 -0.21167,-1.56634 0.46564,-1.10066 2.51881,-4.191 2.77281,-4.445 0.254,-0.23283 0,-0.29633 -0.6985,-0.0847 -0.6985,0.1905 -1.50283,0.6985 -1.86264,0.91017 -0.35983,0.1905 -1.524,1.10067 -1.86267,1.24883 -0.35983,0.14817 0.0423,-1.67216 0.55034,-2.07433 0.508,-0.40217 3.83114,-2.85741 4.52964,-3.21725 0.71958,-0.35983 4.38141,-2.15897 5.24924,-3.5348 0.84667,-1.35467 4.33917,-5.69381 5.03767,-7.74695 0.6985,-2.07433 1.16417,-3.7888 1.905,-5.65147 0.762,-1.86264 3.38667,-5.05878 4.29683,-6.11711 0.93134,-1.07949 1.651,-2.01082 3.06917,-2.43415 1.43933,-0.42333 4.93183,-1.05832 6.62517,-1.20649 1.7145,-0.14816 4.99505,0.635 5.98988,1.14299 0.99484,0.48683 3.34434,2.49765 4.48734,4.40265 1.143,1.92614 1.778,2.64581 1.778,4.14861 0,1.48167 0.14816,5.27047 -0.127,5.63031 -0.29634,0.35983 -0.5715,0.635 -0.78317,1.05833 -0.21167,0.42333 -0.42333,1.86264 -0.86783,2.07431 -0.42334,0.21166 -0.127,-0.14817 -0.78317,3.06913 -0.635,3.19617 -2.13783,5.41864 -2.62467,6.62514 -0.508,1.20642 -2.58233,2.13775 -2.794,2.34942 -0.21166,0.21166 -22.24588,6.87916 -22.24588,6.87916 z"
       style="fill:#000000;fill-opacity:1;fill-rule:evenodd;stroke:none" />
    <path
       inkscape:connector-curvature="0"
       id="path8081"
       d="m 452.12426,581.94496 c -0.21166,0.33866 -1.05833,1.03714 -2.87866,1.92614 -1.82025,0.889 -3.34425,1.905 -4.55075,2.96324 -1.18531,1.05834 -1.52397,0.97367 -2.11664,2.13784 -0.59267,1.143 0.99483,-0.762 3.32314,-1.524 2.34941,-0.762 2.34941,-1.29117 1.62983,-0.23284 -0.71966,1.05834 0.59258,-0.8255 -2.05316,2.64584 -0.80434,1.05833 -0.889,1.60866 -1.22767,2.43416 -1.10064,2.75167 0.635,-0.0212 2.20133,-1.7145 1.58742,-1.69333 1.46042,-0.762 1.05834,0.42334 -0.381,1.18533 -0.55034,1.48166 -0.59267,2.921 -0.0423,1.43933 0.127,-0.93134 1.37575,-1.86267 1.22766,-0.93133 4.27566,-2.58233 4.064,-1.43933 -0.21167,1.143 -0.29634,1.35466 -1.48167,2.58233 -1.41817,1.48167 -2.07433,1.73567 -3.57708,3.40783 -1.48167,1.651 -1.43933,2.07434 -1.86267,2.96334 -0.42333,0.889 -0.46566,2.159 -0.46566,3.25966 0,1.10067 0.29633,-1.43933 1.143,-2.667 0.84666,-1.22766 2.73041,-3.76766 3.36541,-3.556 0.635,0.21167 0.508,1.31234 1.05833,1.18534 0.55034,-0.127 0.55034,-0.93134 3.38667,-2.64584 2.83633,-1.69333 8.27617,-4.699 10.43517,-4.699 2.159,0 12.38222,-1.86266 13.77922,-2.62466 1.397,-0.762 2.77283,-2.96325 3.3655,-4.33908 0.59266,-1.35464 1.27,-3.68298 1.778,-6.13828 0.508,-2.45531 -22.26706,-10.81608 -22.77506,-10.43508 -0.508,0.381 -0.46566,0.42333 -0.93133,2.15897 -0.46567,1.73567 -3.175,7.32361 -4.318,8.72061 -1.143,1.39697 -2.37067,3.42897 -3.13267,4.14864 z"
       style="fill:#ffd42a;fill-opacity:1;fill-rule:evenodd;stroke:none" />
    <path
       inkscape:connector-curvature="0"
       id="path8083"
       d="m 460.08293,568.35604 c 0,0 -0.127,2.32834 -1.88383,5.69381 -1.73567,3.3443 -2.54,6.56161 -5.29167,8.46661 -2.75167,1.90497 -3.59833,2.73047 -5.65141,3.61938 -2.032,0.889 5.82074,-2.01074 8.19141,-3.02674 2.37067,-1.01598 4.21217,-0.0847 1.05833,1.62983 -3.13266,1.69325 -7.57766,3.59825 -8.21266,5.20691 -0.635,1.60867 -1.12175,3.15384 -1.12175,3.15384 0,0 0.48675,-2.0955 3.11141,-3.57717 2.62467,-1.48167 9.80017,-4.44491 11.4935,-4.52958 1.69334,-0.0847 1.73567,1.48158 0,2.53991 -1.73566,1.05834 -5.1435,1.397 -7.38716,3.89467 -2.24367,2.49767 -4.191,4.16983 -4.14867,4.8895 0.0423,0.71967 4.65667,-3.40783 7.239,-4.42383 2.6035,-1.016 4.29683,-1.60867 6.32883,-1.94734 2.032,-0.33866 10.9855,-0.71966 14.03322,-2.37066 3.06917,-1.65092 4.7625,-7.42939 4.8895,-8.86869 0.127,-1.43934 3.34434,-8.78411 2.667,-9.88478 -0.67733,-1.10067 -4.65666,-8.86876 -7.6835,-9.63076 -3.00538,-0.76199 -17.12355,7.76812 -17.63155,8.99576 -0.508,1.22767 0,0.16933 0,0.16933 z"
       style="fill:#ffeeaa;fill-opacity:1;fill-rule:evenodd;stroke:none" />
    <path
       inkscape:connector-curvature="0"
       id="path8085"
       d="m 480.42382,592.76101 c 0,0 2.45533,-1.62983 3.4925,-1.62983 1.016,0 3.2385,1.3335 5.75733,3.72533 2.51883,2.39183 6.58283,5.94783 8.4455,8.04333 1.86267,2.0955 3.85233,4.74134 5.88433,5.5245 2.032,0.762 5.6515,2.83634 7.1755,4.02167 1.54517,1.18533 5.77822,6.96355 7.47155,7.97955 14.49917,2.89984 24.48983,14.732 1.43933,8.5725 -1.01599,-1.778 1.10067,-2.54 -3.04799,-4.2545 -4.14839,-1.69333 -8.82622,-3.72533 -9.84222,-4.40266 -1.016,-0.67734 -3.64067,-3.47134 -5.86317,-4.65667 -2.20133,-1.18505 -4.572,-1.79889 -6.26533,-3.40755 -1.69333,-1.60867 -6.20183,-4.064 -7.47183,-5.67267 -1.27,-1.60867 -1.016,-2.37067 -2.62467,-1.86267 -1.60867,0.508 -1.69333,1.60867 -2.286,2.20134 -0.59267,0.59266 -0.67733,2.286 -1.60867,0.33866 -0.93133,-1.94733 -2.81516,-9.3345 -2.81516,-10.51983 0,-1.18533 1.18533,-3.175 2.159,-4.0005 z"
       style="fill:#e9c6af;fill-opacity:1;fill-rule:evenodd;stroke:none" />
    <path
       inkscape:connector-curvature="0"
       id="path8087"
       d="m 486.81615,605.75734 c 0,0 -0.93133,-0.889 -1.31233,-1.3335 -0.40217,-0.4445 -1.54517,-3.09033 -1.54517,-4.61433 0,-1.524 0.0423,-2.794 0.8255,-4.699 0.80433,-1.905 1.35467,-3.6195 1.50283,-3.683 0.14817,-0.0635 0.55034,0.508 0.55034,0.508 0,0 -0.3175,0.40217 -0.80434,1.524 -0.508,1.12183 -0.93133,1.905 -1.18533,3.556 -0.27517,1.651 -0.40217,2.05317 -0.0212,3.70417 0.381,1.651 0.71967,2.58233 1.16417,3.40783 0.4445,0.8255 1.03716,1.82033 1.16416,1.98967 0.10584,0.16933 -0.33866,-0.35984 -0.33866,-0.35984 z"
       style="fill:#000000;fill-opacity:1;fill-rule:evenodd;stroke:none" />
    <path
       inkscape:connector-curvature="0"
       id="path8089"
       d="m 455.70143,631.03006 c -0.33867,0.67734 -9.84241,22.56339 -11.02775,26.64855 -1.1853,4.064 11.36642,7.95867 12.04375,3.048 0.67733,-4.93183 9.3345,-12.72088 11.02783,-12.72088 1.7145,0 4.7625,6.77305 6.62517,9.50355 1.86267,2.70933 11.28155,-5.75705 14.07555,-4.16983 5.10117,2.87866 -3.048,-23.66405 -4.91066,-25.52672 -1.86267,-1.86267 -27.32589,-4.2545 -27.83389,3.21733 z"
       style="fill:#0081ff;fill-opacity:1;fill-rule:evenodd;stroke:none" />
    <path
       inkscape:connector-curvature="0"
       id="path8091"
       d="m 460.37926,592.25301 c 0,0 -3.28083,-0.42333 -3.76766,0 -0.48684,0.42333 -6.83684,8.27617 -7.6835,9.35567 -0.84667,1.0795 -6.83672,10.13883 -7.68339,11.28183 -0.8255,1.143 -5.27044,4.78339 -6.54044,6.11689 -1.24884,1.31233 -4.27564,7.62 -5.29164,9.73666 -1.01597,2.11667 -1.43931,4.40267 -3.83114,5.588 -2.37064,1.18534 -4.88945,4.1275 -5.14345,5.6515 -0.254,1.54517 0.82549,4.59317 1.50282,4.59317 2.39183,0.52917 3.02683,-0.254 7.36594,-4.14867 2.05316,-3.8735 1.79916,-2.43416 2.05316,-3.8735 0.254,-1.4605 1.77797,-2.81516 5.33395,-5.86316 3.57716,-3.048 5.10113,-5.41867 6.87913,-8.3185 1.77798,-2.87867 4.76239,-6.77334 6.96372,-8.12772 2.20134,-1.37584 5.16467,-6.0325 5.588,-6.96384 0.42334,-0.93133 1.651,-11.557 4.2545,-15.02833 z"
       style="fill:#e9c6af;fill-opacity:1;fill-rule:evenodd;stroke:none" />
    <path
       inkscape:connector-curvature="0"
       id="path8093"
       d="m 456.90793,607.72584 c 0,0 -0.91017,0.23284 -0.8255,-1.92616 0.0847,-2.159 0.74083,-3.15384 0.67733,-5.22817 -0.0847,-2.0955 -1.24883,-8.5725 -0.84666,-8.65717 0.42333,-0.0847 9.56733,-3.4925 9.99066,-3.57716 0.40217,-0.0847 0.99484,0 0.74084,0.33866 -0.254,0.33867 0.8255,0.65617 -0.99484,0.91017 -1.8415,0.254 -7.89516,3.00567 -7.89516,3.00567 0,0 1.0795,12.3825 -0.84667,15.13416 z"
       style="fill:#000000;fill-opacity:1;fill-rule:evenodd;stroke:none" />
    <path
       inkscape:connector-curvature="0"
       id="path8095"
       d="m 486.37165,605.39751 c -0.67733,2.54 -3.00567,15.30322 -3.51367,17.84322 -0.508,2.54 3.21734,11.19717 2.70934,12.55183 -0.508,1.35467 -11.53556,11.53584 -16.27689,11.70517 -4.7625,0.16933 -13.25033,-3.21733 -13.75833,-6.43467 -0.508,-3.2385 1.35466,-13.22916 1.69333,-17.145 0.33867,-3.89466 0.254,-14.32955 -0.762,-18.41472 1.8415,-7.57766 -0.889,-12.74233 0.16933,-13.22916 1.016,-0.508 9.5885,-3.64067 9.5885,-3.64067 0,0 3.2385,1.016 5.2705,1.016 2.032,0 2.49767,-1.41817 3.72534,-1.35467 2.96305,0.16934 4.19072,0.889 6.75188,1.56634 2.20134,0.71966 4.27567,2.07433 4.27567,2.07433 0.0212,-0.0212 -1.5875,3.175 -1.94733,5.60917 -0.381,2.58233 0.23283,4.59316 1.41816,6.96383 z"
       style="fill:#00c1ff;fill-opacity:1;fill-rule:evenodd;stroke:none" />
    <path
       inkscape:connector-curvature="0"
       id="path8097"
       d="m 467.7241,582.9821 c 0,0 -0.889,4.50841 -1.50284,5.39741 -0.59266,0.91017 -1.50283,2.286 -2.0955,2.87867 -0.59266,0.61383 2.58234,4.3815 3.66184,6.37116 1.0795,1.9685 3.59833,-2.05316 5.22816,-3.302 1.60867,-1.27 4.00022,-2.2225 4.06372,-4.08516 0.0635,-1.86267 0.1905,-3.302 0.48684,-4.02167 0.29633,-0.71958 -9.35539,-4.44489 -9.84222,-3.23841 z"
       style="fill:#deaa87;fill-opacity:1;fill-rule:evenodd;stroke:none" />
    <path
       inkscape:connector-curvature="0"
       id="path8099"
       d="m 474.37043,588.35834 c 0,0 1.3335,0 1.8415,-0.381 0.50772,-0.381 2.01055,-2.20124 2.56089,-2.66691 0.55033,-0.46567 2.05316,-2.62467 2.30716,-3.83114 0.254,-1.18533 0.762,-2.58233 1.05834,-3.4713 0.29633,-0.889 1.397,-2.70934 1.22766,-3.64064 -0.16933,-0.93134 -1.88383,-7.70461 -2.8575,-8.17028 -0.97366,-0.46567 -7.93722,-2.13783 -9.16488,-1.7145 -1.22767,0.42333 -5.50334,8.14911 -5.88434,8.78411 -0.381,0.635 -0.762,1.35467 -1.016,2.87864 -0.254,1.524 -0.254,3.04797 0.21167,4.27564 0.46567,1.22766 4.14867,4.46614 4.8895,5.22814 0.71967,0.76191 2.58233,2.32824 4.826,2.70924 z"
       style="fill:#e9c6af;fill-opacity:1;fill-rule:evenodd;stroke:none" />
    <path
       inkscape:connector-curvature="0"
       id="path8101"
       d="m 464.6126,566.6204 c 0,0 -1.24884,6.05361 -1.016,8.63592 0.254,2.58233 0.635,1.12183 1.7145,3.38667 0.35983,0.5503 1.16416,-4.16981 1.88383,-5.41864 0.71967,-1.27 2.0955,-2.81514 2.26483,-3.23847 0.1905,-0.42334 0.29634,2.3918 1.143,2.87863 0.84667,0.46567 1.37584,1.43934 1.62984,1.016 0.23283,-0.42333 1.143,-3.17497 1.86266,-4.91063 0.71967,-1.75681 1.0795,-3.72531 1.0795,-3.19614 0,0.55033 0.59267,4.9318 0.8255,5.29164 0.254,0.3598 1.98939,-2.81517 1.98939,-3.78881 0,-0.9525 0.29633,4.93178 0.71967,5.29161 0.42333,0.35983 1.86266,-3.06914 2.032,-3.7253 0.1905,-0.65617 0.23283,1.73566 0.42333,2.6458 0.16933,0.889 0.889,4.97414 0.78317,5.43981 -0.127,0.48683 2.159,-0.9525 2.32833,-2.20131 0.1905,-1.27 1.56633,-1.143 1.0795,-7.38711 -0.10583,-1.43933 -1.905,-3.95814 -2.39183,-4.6778 -0.48684,-0.71967 -3.72534,-3.53482 -4.91067,-3.78882 -1.2065,-0.23283 -3.30172,-0.65616 -4.67755,-0.65616 -1.397,0 -7.21784,1.37582 -7.97984,2.15898 -0.78316,0.78316 -4.86833,6.0748 -5.29166,7.02727 -0.42334,0.9525 2.51883,3.40784 2.87866,3.83114 0.35984,0.42333 1.62984,-4.61428 1.62984,-4.61428 z"
       style="fill:#d4aa00;fill-opacity:1;fill-rule:evenodd;stroke:none" />
    <path
       inkscape:connector-curvature="0"
       id="path8103"
       d="m 467.4066,573.94401 c 0,0 -0.4445,1.60864 0.10583,2.37064 0.55033,0.78317 1.31233,1.37584 2.18017,1.22767 0.86783,-0.14817 1.9685,-1.31233 1.86266,-2.05317 -0.10583,-0.7408 -0.27516,-1.58747 -0.381,-1.6933 -0.10583,-0.127 -2.94216,-0.33867 -3.76766,0.14816 z"
       style="fill:#ffffff;fill-opacity:1;fill-rule:evenodd;stroke:#000000;stroke-width:0.35983068px;stroke-linecap:butt;stroke-linejoin:miter;stroke-miterlimit:4;stroke-dasharray:none;stroke-opacity:1" />
    <path
       inkscape:connector-curvature="0"
       id="path8105"
       d="m 478.62465,574.00751 c 0,0 -0.67733,2.26481 0.1905,3.11148 0.86783,0.86783 2.07433,0.46566 2.32833,-0.14817 0.23284,-0.59267 0.5715,-1.5875 0.508,-2.28597 -0.0635,-1.0795 -0.33866,-0.9525 -0.93133,-1.016 -0.59267,-0.0635 -1.35467,0.23283 -2.0955,0.33866 z"
       style="fill:#ffffff;fill-opacity:1;fill-rule:evenodd;stroke:#000000;stroke-width:0.35983068px;stroke-linecap:butt;stroke-linejoin:miter;stroke-miterlimit:4;stroke-dasharray:none;stroke-opacity:1" />
    <path
       inkscape:connector-curvature="0"
       id="path8107"
       d="m 479.02682,573.85935 c 0,0 -0.10584,0.5715 0.0212,0.86783 0.127,0.31747 0.635,0.52914 0.635,0.52914 l -0.5715,0.29633 c 0,0 -0.14817,0.21167 0.16933,0.59267 0.33867,0.381 0.27517,0.5715 0.635,0.48683 0.35983,-0.10583 0.80433,-0.65616 0.78317,-1.27 -0.0212,-0.59264 0.14816,-1.54514 -0.127,-1.65097 -0.254,-0.0847 -0.97367,-0.0847 -1.4605,0.1905 -0.48684,0.27517 0,-0.0423 0,-0.0423 z"
       style="fill:#000000;fill-opacity:1;fill-rule:evenodd;stroke:#0000ff;stroke-width:0.33866414px;stroke-linecap:butt;stroke-linejoin:miter;stroke-miterlimit:4;stroke-dasharray:none;stroke-opacity:1" />
    <path
       inkscape:connector-curvature="0"
       id="path8109"
       d="m 495.28282,710.38333 c -1.22767,-2.286 -5.1435,-10.30817 -6.32884,-12.67883 -1.18533,-2.37067 -3.72533,-8.48755 -4.40266,-11.19689 -0.67734,-2.70933 -0.67734,-5.08 -0.67734,-5.08 0,0 -1.22766,-3.40783 -3.70416,-8.6995 -1.9685,-4.2545 -4.27539,-8.27616 -5.29139,-11.15483 -1.016,-2.87867 -1.35467,-11.53555 0.84667,-13.39822 2.20105,-1.88383 9.50355,-2.7305 11.19688,0 1.69334,2.70934 3.47134,12.93255 4.826,18.71105 1.35467,5.75734 0.9525,7.747 0.9525,9.271 0,1.524 0,3.40784 0.67734,4.2545 0.67733,0.84667 4.572,9.50384 5.41866,12.89022 0.84667,3.38667 1.016,11.19717 1.69334,13.9065 0.67733,2.70933 1.41816,2.62467 0.46566,4.16983 -1.05833,1.73567 -2.32833,1.31234 -3.59833,1.016 0,0 -1.43933,-0.635 -2.07433,-2.01083 z"
       style="fill:#e9c6af;fill-opacity:1;fill-rule:evenodd;stroke:none" />
    <path
       inkscape:connector-curvature="0"
       id="path8111"
       d="m 491.43048,676.49578 c 0,0 1.0795,-4.318 0.35984,-7.06967 -0.71967,-2.75166 -2.05317,-9.35566 -2.77284,-10.922 -0.71966,-1.56633 -2.64583,-10.30788 -3.59833,-10.79471 -0.9525,-0.48684 -4.08517,-0.23284 -3.59833,0.127 0.48683,0.35983 3.00566,-0.127 4.445,3.95816 1.43933,4.06372 4.191,14.98572 4.55083,17.14472 0.35983,2.159 0.61383,5.3975 0.61383,7.5565 z"
       style="fill:#deaa87;fill-opacity:1;fill-rule:evenodd;stroke:none" />
    <path
       inkscape:connector-curvature="0"
       id="path8113"
       d="m 433.11677,712.5 c 0,0 1.92616,0.71966 2.87866,-0.97367 0.95248,-1.67217 1.43931,-4.318 3.36548,-6.477 1.90497,-2.159 5.50327,-7.78933 6.22294,-9.7155 0.71967,-1.905 3.23841,-7.91605 3.23841,-9.84222 0,-1.905 -0.23283,-3.2385 1.0795,-5.1435 1.3335,-1.92616 3.00567,-5.6515 4.08517,-8.04333 1.0795,-2.39183 3.2385,-12.72117 2.87867,-17.399 -0.35984,-4.67755 -4.953,-10.15972 -7.112,-8.48755 -2.15892,1.69333 -7.40822,13.39822 -8.00089,16.40388 -0.59267,3.00567 -1.67214,12.1285 -2.03197,13.67367 -0.35983,1.56633 -3.49247,5.3975 -3.95814,7.45067 -0.48683,2.032 -1.79917,9.12255 -2.286,12.72088 -0.48683,3.59833 -1.01597,7.57767 -1.9473,9.8425 -1.48167,2.75167 -1.82034,5.12233 -0.33867,5.63033 0.61383,0.10584 1.3335,0.35984 1.92614,0.35984 z"
       style="fill:#e9c6af;fill-opacity:1;fill-rule:evenodd;stroke:none" />
    <path
       inkscape:connector-curvature="0"
       id="path8115"
       d="m 487.57815,681.53345 c 0,0 1.92617,0.127 2.64583,-0.35984 0.71967,-0.46566 1.67217,-0.10583 2.39184,0.48684 0.71966,0.59266 4.67783,9.58821 5.03766,10.30788 0.35984,0.74083 1.69334,13.56783 1.79917,14.1605 0.127,0.61383 -0.10583,1.56633 -0.46567,0.97367 -0.35983,-0.61384 -1.69333,-11.51467 -2.64583,-13.67367 -0.9525,-2.18017 -4.318,-11.28155 -4.318,-11.28155 0,0 -1.31233,1.54517 -2.64583,1.79917 -1.31234,0.23283 -3.59834,-1.69334 -3.59834,-1.69334 0,0 -0.9525,-0.71966 1.79917,-0.71966 z"
       style="fill:#deaa87;fill-opacity:1;fill-rule:evenodd;stroke:none" />
    <path
       inkscape:connector-curvature="0"
       id="path8117"
       d="m 486.54098,693.80983 4.572,-0.80433 -0.61383,-1.67217 c 0,0 1.41817,0.27517 1.778,-2.03172 0.33867,-2.286 0.35983,-4.16983 0.0847,-6.0325 -0.254,-1.8415 -3.7465,-11.15483 -4.191,-12.93283 -0.4445,-1.75683 -4.80483,-12.78467 -4.72017,-13.48317 0.0847,-0.6985 -0.10583,-1.62983 0.59267,-2.3495 1.22767,-1.22766 2.6035,-1.52371 3.21733,-1.60838 0.61384,-0.0847 1.3335,0.95222 1.94734,0.76172 0.61383,-0.16934 0.99483,-0.71939 1.29116,-1.46022 0.33867,-0.8255 -0.1905,-4.84717 -0.1905,-4.84717 l -39.75071,-3.02683 -3.97925,6.01133 c 0,0 -4.65664,7.28105 -4.12747,7.38689 0.52916,0.0847 1.397,-0.1905 1.73563,-0.9525 2.13784,-4.84689 5.33392,-10.30789 5.86309,-10.47722 0.52916,-0.1905 0.78316,1.778 0.61383,2.39183 -0.16933,0.61384 -2.75167,10.90055 -3.19608,11.78955 -0.4445,0.86784 -0.6985,4.93184 -0.52917,5.63034 0.16933,0.71966 1.35458,5.94783 1.69325,7.00616 0.35983,1.05834 0.46567,3.57717 0.29633,4.74134 -0.16933,1.143 -0.46566,8.763 -0.84666,10.30816 -1.16409,4.69872 -1.98959,5.54539 -1.86259,6.18039 0.254,1.37583 1.16417,1.8415 1.16417,1.8415 0,0 3.87342,1.5875 4.84708,1.5875 0.97367,0 2.11667,-0.0847 2.11667,-0.0847 l -0.52917,3.45017 29.46372,-2.56117 -1.05833,-3.70417 z"
       style="fill:#000000;fill-opacity:1;fill-rule:evenodd;stroke:none" />
    <path
       inkscape:connector-curvature="0"
       id="path8119"
       d="m 487.28182,641.38056 c 0.8255,1.0795 3.45016,6.731 2.667,10.18117 -0.67734,2.94188 -2.2225,-0.74083 -4.65667,1.10067 -2.05317,1.54488 -3.53483,2.83605 -1.69333,7.09055 1.79916,4.445 5.5245,15.83266 6.49816,18.11866 0.9525,2.286 2.62467,9.48267 1.43934,11.64167 -1.2065,2.15872 -6.24417,3.47105 -7.9375,4.42355 -1.67217,0.97367 0.35983,-3.34405 0.48683,-8.27588 0.127,-4.91067 -0.71967,-6.477 -2.64583,-13.44084 -1.905,-6.94266 -5.16439,-5.86316 -6.37089,-16.91216 -1.2065,-11.02755 -2.8575,-7.55622 0.74083,-17.14472 3.59806,-9.60967 2.83606,13.6525 5.58772,10.64683 2.75167,-3.00566 5.75734,-6.11716 5.88434,-7.4295 z"
       style="fill:#0081ff;fill-opacity:1;fill-rule:evenodd;stroke:none" />
    <path
       inkscape:connector-curvature="0"
       id="path8121"
       d="m 491.93848,705.43033 c 0,0 2.667,1.3335 4.74134,1.67217 2.0955,0.3175 5.842,0.40216 5.5245,-0.0847 -0.33867,-0.508 -0.42334,-1.16417 -1.18534,-1.41817 -0.74083,-0.254 -8.763,-0.0847 -9.0805,-0.16933 z"
       style="fill:none;stroke:#000000;stroke-width:0.16933207px;stroke-linecap:butt;stroke-linejoin:miter;stroke-miterlimit:4;stroke-dasharray:none;stroke-opacity:1" />
    <path
       inkscape:connector-curvature="0"
       id="path8123"
       d="m 501.10365,704.66833 c 0,0 2.0955,1.8415 2.01083,2.26483 -0.0847,0.40217 -0.42333,5.334 -1.24883,5.588 -0.84667,0.254 -7.02733,0.71967 -8.27617,-0.35983 -1.27,-1.0795 -2.37066,-5.9055 -1.54516,-6.64633 0.8255,-0.762 7.38716,-1.10067 9.05933,-0.84667 z"
       style="fill:#483737;fill-opacity:1;fill-rule:evenodd;stroke:#000000;stroke-width:0.16933207px;stroke-linecap:butt;stroke-linejoin:miter;stroke-miterlimit:4;stroke-dasharray:none;stroke-opacity:1" />
    <path
       inkscape:connector-curvature="0"
       id="path8125"
       d="m 501.84448,711.12416 c 0,0 -0.33866,7.1755 0.99484,8.84767 1.3335,1.67217 6.2865,4.572 7.112,5.99017 0.84666,1.41816 -0.254,2.3495 -0.93134,2.68816 -7.95866,2.03172 -11.51466,0.42334 -12.93283,-0.33866 -1.41817,-0.74084 0.59267,-6.4135 0.33867,-8.65717 -0.254,-2.26483 -3.51367,-8.27617 -2.75167,-9.271 0.74083,-0.99483 9.24983,-1.0795 8.17033,0.74083 z"
       style="fill:#916f6f;fill-opacity:1;fill-rule:evenodd;stroke:#000000;stroke-width:0.16933207px;stroke-linecap:butt;stroke-linejoin:miter;stroke-miterlimit:4;stroke-dasharray:none;stroke-opacity:1" />
    <path
       inkscape:connector-curvature="0"
       id="path8127"
       d="m 501.88682,727.4225 c -0.3175,0.127 -1.397,1.56633 0.10583,1.69333 1.50283,0.10583 6.77333,-0.84667 7.09083,-0.97367 0.29634,-0.10583 1.24884,-1.05833 0.889,-1.7145 -0.35983,-0.65616 -1.50283,-1.82033 -2.032,-1.98966 -0.55033,-0.1905 -0.0635,0.29633 0.35984,0.8255 0.42333,0.55033 1.31233,0.61383 0.46566,1.2065 -0.8255,0.59266 -1.37583,1.56633 -3.89466,1.73566 -2.51884,0.1905 -2.87867,0.65617 -2.9845,-0.78316 z"
       style="fill:#483737;fill-opacity:1;fill-rule:evenodd;stroke:none" />
    <path
       inkscape:connector-curvature="0"
       id="path8129"
       d="m 440.18641,705.43033 c 0,0 -2.667,1.3335 -4.76248,1.67217 -2.0955,0.3175 -5.84197,0.40216 -5.5033,-0.0847 0.3175,-0.508 0.40217,-1.16417 1.16417,-1.41817 0.74083,-0.254 8.76294,-0.0847 9.10161,-0.16933 z"
       style="fill:none;stroke:#000000;stroke-width:0.16933207px;stroke-linecap:butt;stroke-linejoin:miter;stroke-miterlimit:4;stroke-dasharray:none;stroke-opacity:1" />
    <path
       inkscape:connector-curvature="0"
       id="path8131"
       d="m 431.00013,704.66833 c 0,0 -2.09547,1.8415 -2.01083,2.26483 0.0847,0.40217 0.42333,5.334 1.24883,5.588 0.84667,0.254 7.02728,0.71967 8.29728,-0.35983 1.24883,-1.0795 2.37063,-5.9055 1.524,-6.64633 -0.8255,-0.762 -7.38711,-1.10067 -9.05928,-0.84667 z"
       style="fill:#483737;fill-opacity:1;fill-rule:evenodd;stroke:#000000;stroke-width:0.16933207px;stroke-linecap:butt;stroke-linejoin:miter;stroke-miterlimit:4;stroke-dasharray:none;stroke-opacity:1" />
    <path
       inkscape:connector-curvature="0"
       id="path8133"
       d="m 430.2593,711.12416 c 0,0 0.33866,7.1755 -0.99484,8.84767 -1.33347,1.67217 -6.28644,4.572 -7.11193,5.99017 -0.8255,1.41816 0.27516,2.3495 0.93132,2.68816 7.97978,2.03172 11.51458,0.42334 12.93275,-0.33866 1.41814,-0.74084 -0.5715,-6.4135 -0.3175,-8.65717 0.23283,-2.26483 3.49247,-8.27617 2.75164,-9.271 -0.762,-0.99483 -9.27094,-1.0795 -8.19144,0.74083 z"
       style="fill:#916f6f;fill-opacity:1;fill-rule:evenodd;stroke:#000000;stroke-width:0.16933207px;stroke-linecap:butt;stroke-linejoin:miter;stroke-miterlimit:4;stroke-dasharray:none;stroke-opacity:1" />
    <path
       inkscape:connector-curvature="0"
       id="path8135"
       d="m 430.23813,727.4225 c 0.29633,0.127 1.37583,1.56633 -0.127,1.69333 -1.50281,0.10583 -6.77328,-0.84667 -7.06961,-0.97367 -0.3175,-0.10583 -1.24882,-1.05833 -0.88899,-1.7145 0.35982,-0.65616 1.48166,-1.82033 2.01082,-1.98966 0.55034,-0.1905 0.0635,0.29633 -0.35983,0.8255 -0.40217,0.55033 -1.31233,0.61383 -0.46567,1.2065 0.8255,0.59266 1.37584,1.56633 3.89464,1.73566 2.51881,0.1905 2.87864,0.65617 3.00564,-0.78316 z"
       style="fill:#483737;fill-opacity:1;fill-rule:evenodd;stroke:none" />
    <path
       inkscape:connector-curvature="0"
       id="path8137"
       d="m 480.44498,564.22857 c 0,0 0.27517,0.0847 0.27517,1.69333 0,1.62981 -1.3335,4.61431 -1.62983,5.29161 -0.27517,0.67734 -0.6985,-5.20694 -0.97367,-5.88427 -0.29633,-0.67734 -1.143,4.00047 -1.69305,4.52964 -0.5715,0.55033 -0.5715,-4.95298 -1.05834,-5.69381 -0.508,-0.7408 -0.67733,1.3335 -1.29116,3.09033 -1.27,3.61948 -0.40217,1.03714 -0.91017,2.32831 -0.48683,1.29117 -1.10067,2.56114 -1.016,3.17497 0.0635,0.61383 -2.05317,-1.43933 -1.778,-4.00047 0.29633,-2.58231 0.33867,-3.42897 0.1905,-3.85231 -0.14817,-0.40216 -0.6985,1.9685 -1.9685,4.21214 -1.27,2.24364 -2.667,5.35514 -2.81517,6.98495 -0.127,1.62983 -2.20133,-1.29114 -3.34433,-3.09031 -1.27,-1.98964 -5.5245,-2.0743 0.762,-9.50375 3.83117,-4.42381 4.55083,-3.87348 10.20233,-4.80481 5.43956,0.1905 6.68839,1.71449 8.38172,3.34431 1.69334,1.62981 2.32834,2.73047 2.6035,4.57197 0.29634,1.82031 0.635,5.14345 -0.27516,6.56161 -0.91017,1.41817 -1.75684,2.43414 -2.05317,2.43414 -0.27517,0 -0.127,-6.09594 -0.42333,-6.77327 -0.27517,-0.67734 0.84666,-2.79398 -1.18534,-4.61431 z"
       style="fill:#ffeeaa;fill-opacity:1;fill-rule:evenodd;stroke:none" />
    <path
       inkscape:connector-curvature="0"
       id="path8139"
       d="m 468.44376,573.83818 c 0,0 -0.14816,0.48683 -0.14816,0.74083 0,0.27517 0.91016,0.46564 0.91016,0.46564 l -0.889,0.23284 c 0,0 0,0.381 0.3175,0.74083 0.29634,0.35983 0.52917,0.762 0.9525,0.55033 0.42334,-0.21166 0.74084,-0.23283 0.84667,-0.78316 0.0847,-0.52917 0.14817,-1.94731 -0.0423,-2.03198 -0.16933,-0.10583 -1.54517,-0.127 -1.94733,0.0847 z"
       style="fill:#000000;fill-opacity:1;fill-rule:evenodd;stroke:#0000ff;stroke-width:0.33866414px;stroke-linecap:butt;stroke-linejoin:miter;stroke-miterlimit:4;stroke-dasharray:none;stroke-opacity:1" />
    <path
       inkscape:connector-curvature="0"
       id="path8141"
       d="m 466.47526,574.07101 c 0.14817,-0.0847 1.88384,-0.508 3.25967,-0.42333 1.37583,0.10583 2.159,0.40217 2.6035,0.46567"
       style="fill:none;stroke:#000000;stroke-width:0.33866414px;stroke-linecap:butt;stroke-linejoin:miter;stroke-miterlimit:4;stroke-dasharray:none;stroke-opacity:1" />
    <path
       inkscape:connector-curvature="0"
       id="path8143"
       d="m 466.91976,577.79632 c 0,0 0.23284,0.55033 2.032,0.55033 1.79917,0 3.78884,-0.33866 4.08517,-0.40216 0.29633,-0.0635 -2.64583,0.21166 -4.0005,0.127 -1.3335,-0.0847 -1.10067,-0.0635 -2.11667,-0.27517 z"
       style="fill:#deaa87;fill-opacity:1;fill-rule:evenodd;stroke:none" />
    <path
       inkscape:connector-curvature="0"
       id="path8145"
       d="m 481.39748,577.88099 c -0.3175,-0.0212 -2.62466,0.1905 -3.02683,0.0423 -0.381,-0.14817 -1.43933,-3.23848 -1.50283,-3.70414 -0.0635,-0.4445 -0.35956,-0.0847 -0.254,0.33866 0.0847,0.42334 0.0847,1.58748 0.0847,2.07431 0,0.46567 0,1.397 0.0847,1.75683 0.0847,0.35984 0.4445,0.84664 0.48683,1.12181 0.0212,0.27516 0.16933,0.42333 -0.0635,0.74083 -0.23283,0.33867 -0.14817,0.55033 -0.635,0.635 -0.48655,0.0847 -0.48655,0.33867 -0.65589,0.0635 -0.1905,-0.27517 0.0635,-0.254 -0.29633,-0.33867 -0.35983,-0.0847 0,-0.35983 -0.48683,-0.381 -0.48684,-0.0423 -0.29634,0.29634 -0.14817,0.35984 0.14817,0.0635 -0.0635,0.78316 -0.0847,0.93133 -0.0423,0.14817 0.14817,-0.35983 0.381,-0.5715 0.254,-0.21167 0.40217,0.67733 0.40217,0.80433 0,0.127 -0.254,0 0.5715,-0.48683 0.80405,-0.46567 1.33321,-0.16933 1.48138,-1.03717 0.14817,-0.86783 -0.52917,-1.73563 0.33867,-1.86263 0.86783,-0.127 3.1115,-0.21167 3.2385,-0.21167 0.127,0 0.0635,0 0.0847,-0.27517 z"
       style="fill:#deaa87;fill-opacity:1;fill-rule:evenodd;stroke:none" />
    <path
       inkscape:connector-curvature="0"
       id="path8147"
       d="m 477.58748,574.17685 c 0,0 1.43934,-0.42334 2.51884,-0.48684 1.0795,-0.0635 1.7145,0.127 2.51883,0.35984"
       style="fill:none;stroke:#000000;stroke-width:0.33866414px;stroke-linecap:butt;stroke-linejoin:miter;stroke-miterlimit:4;stroke-dasharray:none;stroke-opacity:1" />
    <path
       inkscape:connector-curvature="0"
       id="path8149"
       d="m 474.73026,579.95529 c 0.127,0 0.35984,0.33867 0.6985,0.3175 0.33867,-0.0212 0.29634,0.508 0.8255,0.48683 0.50772,-0.0423 0.69822,-0.16933 1.01572,-0.40216 0.33867,-0.254 0.35984,-0.8255 0.35984,-1.16417 0,-0.33867 -0.46567,-0.35983 -0.6985,-1.14297 -0.254,-0.78317 -0.42306,-2.81517 -0.40189,-3.17497"
       style="fill:none;stroke:#000000;stroke-width:0.42333022px;stroke-linecap:butt;stroke-linejoin:miter;stroke-miterlimit:4;stroke-dasharray:none;stroke-opacity:1" />
    <path
       inkscape:connector-curvature="0"
       id="path8151"
       d="m 481.79965,572.33535 c -0.16933,-0.0423 -2.7305,0.254 -4.08517,0.16933 -1.35438,-0.0847 1.73567,0.33867 2.81517,0.33867 1.05833,0 1.18533,0.42333 1.27,-0.508 z"
       style="fill:#aa8800;fill-opacity:1;fill-rule:evenodd;stroke:none" />
    <path
       inkscape:connector-curvature="0"
       id="path8153"
       d="m 470.60276,571.78501 c -0.508,0 -3.78883,0.59267 -4.6355,0.80434 -0.84666,0.21166 1.86267,0.127 3.45017,-0.16934 1.56633,-0.29633 1.31233,0.80434 1.18533,-0.635 z"
       style="fill:#aa8800;fill-opacity:1;fill-rule:evenodd;stroke:none" />
    <path
       inkscape:connector-curvature="0"
       id="path8155"
       d="m 474.9631,584.14626 c 0,0 -1.3335,-0.27516 -1.524,-0.381 -0.1905,-0.10583 -1.3335,-0.52916 -1.48167,-0.635 -0.127,-0.0847 0.99483,1.05834 1.27,1.18534 0.27517,0.127 0.65617,0.33866 0.91017,0.381 0.254,0.0635 1.016,0.127 1.37583,0.0212 0.35983,-0.10584 0.635,-0.0847 0.762,-0.254 0.14817,-0.14817 0.35955,-0.381 0.1905,-0.40217 -0.16933,0 -1.27,0.16933 -1.50283,0.0847 z"
       style="fill:#d35f5f;fill-opacity:1;fill-rule:evenodd;stroke:none" />
    <path
       inkscape:connector-curvature="0"
       id="path8157"
       d="m 478.03198,583.5536 c 0,0 -0.5715,0.40216 -1.27,0.508 -0.69822,0.10583 -1.54488,0.0635 -1.98938,0 -0.4445,-0.0847 -1.79917,-0.48684 -2.18017,-0.59267 -0.381,-0.127 -1.4605,-0.65617 -1.69333,-0.88897 -0.23284,-0.21167 -0.4445,-0.508 -0.48684,-0.635 -0.0423,-0.10584 0.74084,0.59266 1.22767,0.65616 0.48683,0.0635 1.86267,0.27514 2.159,0.27514 0.3175,0 0.93133,0.48684 1.18533,0.59267 0.23284,0.0847 0.889,-0.27517 1.29117,-0.16933 0.40189,0.127 0.93105,0.254 1.26972,0.254 0.33867,0 0.1905,0 0.48683,0 z"
       style="fill:#d35f5f;fill-opacity:1;fill-rule:evenodd;stroke:none" />
    <path
       inkscape:connector-curvature="0"
       id="path8159"
       d="m 477.86265,583.8711 c -0.0847,0 -2.37039,0.48683 -3.32289,0.23283 -0.93133,-0.23283 -2.24366,-0.635 -2.667,-0.889 -0.42333,-0.23283 -1.18533,-1.01597 -1.29116,-1.12181"
       style="fill:none;stroke:#000000;stroke-width:0.33866414px;stroke-linecap:butt;stroke-linejoin:miter;stroke-miterlimit:4;stroke-dasharray:none;stroke-opacity:1" />
    <path
       inkscape:connector-curvature="0"
       id="path8161"
       d="m 471.11076,581.77562 c -0.9525,0.508 -0.762,0.33867 -0.889,0.67734"
       style="fill:none;stroke:#000000;stroke-width:0.33866414px;stroke-linecap:butt;stroke-linejoin:miter;stroke-miterlimit:4;stroke-dasharray:none;stroke-opacity:1" />
    <path
       inkscape:connector-curvature="0"
       id="path8163"
       d="m 464.69726,580.10346 c -0.1905,-0.14817 -1.524,-0.84667 -1.9685,-1.2065 -0.4445,-0.35981 -1.24883,-1.65097 -1.31233,-3.40781 -0.0635,-1.7568 -0.40217,-2.94214 -0.127,-3.13264 0.27517,-0.1905 0.59267,-0.65616 1.03717,-0.1905 0.4445,0.46567 0.889,1.7145 1.0795,2.26484 0.1905,0.55033 0.33866,1.90497 0.635,2.37064 0.29633,0.46566 0.65616,0.91016 0.71966,1.50283 0.0635,0.59264 0.48684,1.8838 -0.0635,1.79914 z"
       style="fill:#e9c6af;fill-opacity:1;fill-rule:evenodd;stroke:none" />
    <path
       inkscape:connector-curvature="0"
       id="path8165"
       d="m 467.7241,585.0141 c 0,0 -0.42334,3.36541 -1.016,4.33908 -0.59267,0.9525 -1.92617,1.54516 -1.86267,2.26483 0.0635,0.71967 3.175,4.08517 3.175,4.67783 0,0.61384 0.61383,-3.53483 1.27,-5.03766 0.65617,-1.50284 -0.71967,-4.55084 -0.65617,-5.27042 0.0423,-0.71966 -0.78316,-0.23283 -0.91016,-0.97366 z"
       style="fill:#e9c6af;fill-opacity:1;fill-rule:evenodd;stroke:none" />
    <path
       inkscape:connector-curvature="0"
       id="path8167"
       d="m 448.75876,651.92156 c 0,0 -4.50841,6.51905 -4.59305,7.11172 -0.0847,0.59267 -0.84667,-0.33867 -1.778,4.2545 -0.93133,4.572 -1.778,11.1125 -1.778,11.1125 0,0 1.524,-8.74183 2.54,-11.02783 1.016,-2.286 3.97931,-7.64117 4.84705,-9.24984 0.84667,-1.60838 2.87867,-4.93155 0.762,-2.20105 z"
       style="fill:#deaa87;fill-opacity:1;fill-rule:evenodd;stroke:none" />
    <path
       inkscape:connector-curvature="0"
       id="path8169"
       d="m 440.94838,682.33778 c 0.635,0.4445 1.16416,0.48683 1.50283,0.65617 2.62464,0.508 4.91064,-0.48684 4.91064,-0.48684 0,0 1.03708,0 0.61375,0.508 -0.44442,0.508 -5.01639,1.5875 -5.77839,1.5875 -0.78317,0 -2.43414,-3.09033 -3.61947,-2.2225 -1.18533,0.84667 -1.524,3.048 -2.56114,6.35 -1.016,3.30172 -1.43933,5.35489 -1.43933,5.35489 0,0 1.35466,-9.24955 1.778,-10.18089 0.44447,-0.93133 1.54514,-3.57716 2.56114,-4.59316 1.016,-1.016 1.016,-1.94734 1.27,-2.11667 0.25397,-0.16933 -0.762,4.02167 0.76197,5.1435 z"
       style="fill:#deaa87;fill-opacity:1;fill-rule:evenodd;stroke:none" />
    <path
       inkscape:connector-curvature="0"
       id="path8171"
       d="m 457.3736,618.96506 c 0,0 -0.35984,10.71034 -2.6035,14.2875 -2.26484,3.57717 -4.91067,5.41867 -6.096,9.48267 -1.20642,4.08517 -5.54556,14.07555 -5.54556,14.07555 0,0 7.28122,-15.36672 7.97972,-10.71005 0.84667,5.75733 -4.97408,15.19738 -3.51358,21.08172 1.92608,7.85283 2.28592,8.5725 1.65092,12.2555 -0.46567,2.794 0.127,9.12283 -2.47642,14.22371 -1.016,1.98967 3.25958,4.14867 7.11192,3.66184 3.83116,-0.48684 8.21266,-4.55084 11.13366,-13.44055 2.921,-8.86884 -3.57716,-36.21589 -3.45016,-41.63455 0.127,-5.41867 -9.92717,0.33866 -1.75684,-7.64117 4.318,-4.21217 3.53484,-17.22967 -2.43416,-15.64217 z"
       style="fill:#00dfff;fill-opacity:1;fill-rule:evenodd;stroke:none" />
    <path
       inkscape:connector-curvature="0"
       id="path8173"
       d="m 463.89293,611.89568 c 0.23283,-0.0635 2.3495,0.74083 3.53483,-0.4445 1.18534,-1.2065 1.54517,0.9525 2.96334,1.2065 1.41816,0.254 2.37066,0.46566 4.699,-0.4445 2.30688,-0.91017 3.32288,-0.0847 2.45505,0.254 -0.889,0.33866 -8.40289,1.54516 -9.35539,1.18533 -0.9525,-0.33867 -5.16466,-0.889 -6.11716,-1.397 -0.93134,-0.508 -1.2065,-0.762 -0.67734,-0.93133 0.52917,-0.14817 1.18534,0.381 2.49767,0.5715 z"
       style="fill:#00e1ff;fill-opacity:1;fill-rule:evenodd;stroke:none" />
    <path
       inkscape:connector-curvature="0"
       id="path8175"
       d="m 486.58332,632.23656 c 0,0 -5.588,5.75734 -8.99584,6.96384 -3.38638,1.18533 -11.87422,10.51983 -11.53555,18.30888 0.33867,7.8105 -4.40267,5.10117 -1.016,11.19717 3.38667,6.11716 10.3505,15.621 11.53555,21.03966 1.18534,5.43955 5.60917,4.76222 5.60917,4.76222 l 8.128,-1.778 -5.24933,-15.02805 c 0,0 -6.20184,-13.22917 -7.5565,-21.209 0.84666,-3.70388 1.35466,-6.03222 11.6205,-13.39822 1.35466,-2.87866 -1.524,-5.94783 -2.54,-10.8585 z"
       style="fill:#00a5ff;fill-opacity:1;fill-rule:evenodd;stroke:none" />
    <path
       inkscape:connector-curvature="0"
       id="path8177"
       d="m 485.01698,627.22006 c 0.46567,0.71967 3.175,5.86317 2.45534,7.3025 -0.71967,1.43934 -8.763,9.22867 -10.92172,14.75317 -2.159,5.50305 -3.683,7.45038 -2.11667,13.56755 1.56633,6.11717 4.31772,23.0505 5.03739,25.2095 0.71966,2.159 3.47133,10.11738 3.47133,10.11738 -2.70933,1.18534 -22.54222,2.921 -28.97689,2.75167 0,0 1.651,-14.96455 3.81,-22.33055 1.0795,-3.2385 0.78317,-13.50433 0.61384,-19.19817 -0.29634,-10.56188 2.032,-13.54638 3.83116,-17.39871 1.79917,-3.83117 6.223,-11.72634 12.65767,-15.38817 3.72505,-2.11667 8.42405,-10.8585 9.01672,-12.42455 0.61383,-1.54517 1.88383,-7.1755 2.37067,-8.74184 0.46566,-1.56633 -1.143,12.78439 -1.37584,15.30322 -0.23283,2.51884 -0.35983,4.064 0.127,6.477 z"
       style="fill:#00bfff;fill-opacity:1;fill-rule:evenodd;stroke:none" />
    <path
       inkscape:connector-curvature="0"
       id="path8179"
       d="m 456.0401,592.50701 -4.02167,4.14867 0.61383,0.381 3.53484,-4.16984 z"
       style="fill:#000000;fill-opacity:1;fill-rule:evenodd;stroke:none" />
  </g>
</svg>
