<?xml version="1.0" encoding="UTF-8" standalone="no"?>
<!-- Created with Inkscape (http://www.inkscape.org/) -->

<svg
   xmlns:dc="http://purl.org/dc/elements/1.1/"
   xmlns:cc="http://creativecommons.org/ns#"
   xmlns:rdf="http://www.w3.org/1999/02/22-rdf-syntax-ns#"
   xmlns:svg="http://www.w3.org/2000/svg"
   xmlns="http://www.w3.org/2000/svg"
   xmlns:sodipodi="http://sodipodi.sourceforge.net/DTD/sodipodi-0.dtd"
   xmlns:inkscape="http://www.inkscape.org/namespaces/inkscape"
   width="162.72401mm"
   height="169.96388mm"
   viewBox="0 0 576.58115 602.23423"
   id="svg2"
   version="1.1"
   inkscape:version="0.91 r13725"
   sodipodi:docname="unicorn.svg"
   inkscape:export-filename="D:\PVC\graphics_png\unicorn_without_horn.png"
   inkscape:export-xdpi="99"
   inkscape:export-ydpi="99">
  <defs
     id="defs4">
    <clipPath
       clipPathUnits="userSpaceOnUse"
       id="clipPath8404">
      <path
         style="fill:none;fill-rule:evenodd;stroke:#000000;stroke-width:1px;stroke-linecap:butt;stroke-linejoin:miter;stroke-opacity:1"
         d="m 120.71323,2637.2916 c -1.76777,2.2728 -3.53553,7.071 -2.77792,9.5964 0.75761,2.5254 4.04061,12.6269 10.6066,12.6269 6.56599,0 15.9099,0 20.96067,-6.3134 5.05076,-6.3135 5.05076,-6.3135 2.52538,-9.344 -5.76342,-5.1526 -20.93041,-6.2728 -31.31473,-6.5659 z"
         id="path8406"
         inkscape:connector-curvature="0"
         sodipodi:nodetypes="cssscc" />
    </clipPath>
    <clipPath
       clipPathUnits="userSpaceOnUse"
       id="clipPath10739">
      <path
         style="fill:none;fill-rule:evenodd;stroke:#000000;stroke-width:1px;stroke-linecap:butt;stroke-linejoin:miter;stroke-opacity:1"
         d="m 120.71323,2637.2916 c -1.76777,2.2728 -3.53553,7.071 -2.77792,9.5964 0.75761,2.5254 4.04061,12.6269 10.6066,12.6269 6.56599,0 15.9099,0 20.96067,-6.3134 5.05076,-6.3135 5.05076,-6.3135 2.52538,-9.344 -5.76342,-5.1526 -20.93041,-6.2728 -31.31473,-6.5659 z"
         id="path10741"
         inkscape:connector-curvature="0"
         sodipodi:nodetypes="cssscc" />
    </clipPath>
    <clipPath
       clipPathUnits="userSpaceOnUse"
       id="clipPath8404-5">
      <path
         style="fill:none;fill-rule:evenodd;stroke:#000000;stroke-width:1px;stroke-linecap:butt;stroke-linejoin:miter;stroke-opacity:1"
         d="m 120.71323,2637.2916 c -1.76777,2.2728 -3.53553,7.071 -2.77792,9.5964 0.75761,2.5254 4.04061,12.6269 10.6066,12.6269 6.56599,0 15.9099,0 20.96067,-6.3134 5.05076,-6.3135 5.05076,-6.3135 2.52538,-9.344 -5.76342,-5.1526 -20.93041,-6.2728 -31.31473,-6.5659 z"
         id="path8406-8"
         inkscape:connector-curvature="0"
         sodipodi:nodetypes="cssscc" />
    </clipPath>
  </defs>
  <sodipodi:namedview
     id="base"
     pagecolor="#ffffff"
     bordercolor="#666666"
     borderopacity="1.0"
     inkscape:pageopacity="0.0"
     inkscape:pageshadow="2"
     inkscape:zoom="0.98994949"
     inkscape:cx="137.36185"
     inkscape:cy="282.01975"
     inkscape:document-units="px"
     inkscape:current-layer="layer2"
     showgrid="false"
     inkscape:window-width="1920"
     inkscape:window-height="1018"
     inkscape:window-x="-8"
     inkscape:window-y="-8"
     inkscape:window-maximized="1"
     fit-margin-top="0"
     fit-margin-left="0"
     fit-margin-right="0"
     fit-margin-bottom="0" />
  <metadata
     id="metadata7">
    <rdf:RDF>
      <cc:Work
         rdf:about="">
        <dc:format>image/svg+xml</dc:format>
        <dc:type
           rdf:resource="http://purl.org/dc/dcmitype/StillImage" />
        <dc:title></dc:title>
      </cc:Work>
    </rdf:RDF>
  </metadata>
  <g
     inkscape:label="UnicornWithHorn"
     inkscape:groupmode="layer"
     id="layer1"
     transform="translate(-85.704464,-185.53081)"
     style="display:none">
    <g
       transform="translate(-600.56791,309.43266)"
       id="g9707">
      <path
         sodipodi:nodetypes="cssssssccscssssscssscscscsssssssssscssssssssssssssc"
         inkscape:connector-curvature="0"
         id="path8910"
         d="m 847.66512,118.1844 c 0,0 -11.61675,20.7081 -14.64721,25.7589 -3.03046,5.0508 -16.16244,27.2741 -16.66752,32.83 -0.50507,5.5558 -2.52538,12.1218 0.50508,36.3655 3.03046,24.2436 5.8726,45.5534 10.6066,54.5482 4.48169,8.5154 10.61024,6.8841 13.25454,25.632 0.58168,4.1241 9.97897,39.0178 11.4942,49.1193 1.51523,10.1015 -5.55584,51.0127 -9.59645,54.5482 -4.04061,3.5356 -15.15229,-0.5051 -15.15229,-0.5051 0,0 -15.15229,42.9315 -15.15229,45.962 0,3.0304 15.65737,14.6472 17.67767,16.1624 2.02031,1.5153 9.09137,18.6878 11.61676,19.1929 2.52538,0.5051 54.04316,-5.5558 56.56854,-7.5761 2.52538,-2.0203 16.16244,-16.6675 17.17259,-26.7691 1.01015,-10.1015 -0.50507,-14.1421 -0.50507,-25.2538 0,-11.1117 -3.53554,-104.5508 -0.50508,-109.6015 3.03046,-5.0508 52.02285,-24.2437 55.55839,-24.7488 3.53553,-0.505 23.73858,39.9011 27.27412,41.4163 3.5355,1.5152 10.8276,6.4397 11.3327,9.4702 0.505,3.0304 5.5873,27.8423 3.062,36.4286 -2.5254,8.5862 -8.3338,46.5301 -10.3541,48.0454 -2.0203,1.5152 -8.08121,-3.5356 -9.59644,-1.0102 -1.51523,2.5254 -4.54569,28.7894 -4.54569,28.7894 0,0 22.72843,7.5761 25.75893,9.5964 3.0304,2.0203 2.0203,9.5965 10.6066,10.6066 8.5863,1.0102 36.8705,3.0305 42.9315,-1.0101 6.0609,-4.0406 10.1015,-2.5254 12.6268,-13.6371 2.5254,-11.1117 10.6067,-100.0051 7.0711,-111.1168 -3.5355,-11.1116 -14.1421,-12.6269 -13.637,-32.3249 0.505,-19.6979 6.0609,-22.2233 13.637,-49.4974 7.5762,-27.2741 10.1016,-21.2132 6.0609,-52.0229 -4.0406,-30.8096 -9.5964,-38.3858 -14.1421,-42.4264 -4.5457,-4.0406 -18.6878,-19.1929 -22.7284,-19.1929 -4.0406,0 -14.0704,1.8111 -35.7887,5.3466 -21.71823,3.5356 -26.58825,10.8158 -40.73039,11.3209 -14.14213,0.5051 -17.42513,1.0102 -22.47589,-2.0203 C 951.20576,157.5804 932.51793,121.72 929.99255,96.9712 927.46717,72.2225 926.9621,42.9281 917.87072,26.2605 908.77935,9.593 876.95954,-24.7522 867.86817,-29.8029 c -9.09137,-5.0508 -10.6066,-6.566 -24.24366,-8.5863 -13.63706,-2.0203 -45.45686,1.0101 -54.54824,3.0304 -9.09137,2.0203 -20.42402,15.9099 -22.44432,20.9607 -2.02031,5.0507 -1.60994,25.5063 1.92559,33.5876 3.53554,8.0812 11.11168,19.1929 11.11168,24.7487 0,5.5558 -2.2097,45.9619 -3.21985,50.0026 -1.01016,4.0406 -2.52539,23.2335 7.07106,27.7792 9.59645,4.5456 21.21321,7.071 29.7995,3.0304 8.5863,-4.0406 12.62691,-8.0812 14.64722,-13.132 2.0203,-5.0507 8.08122,-16.6675 15.65736,-22.2233 7.57614,-5.5559 8.08122,2.0203 7.57614,8.0812 -0.50507,6.0609 -2.0203,17.1726 -3.53553,20.7081 z"
         style="fill:#000000;fill-opacity:1;fill-rule:evenodd;stroke:#000000;stroke-width:1px;stroke-linecap:butt;stroke-linejoin:miter;stroke-opacity:1" />
      <path
         inkscape:connector-curvature="0"
         id="path8413"
         d="m 830.47392,254.2893 c 0.5051,2.5254 10.1015,23.2335 12.6269,37.8807 2.5254,14.6473 14.6472,51.5178 13.6371,61.1143 -1.0102,9.5964 -7.5762,36.8705 -11.6168,43.9416 -4.0406,7.0711 -12.6269,-0.5051 -14.6472,3.0305 -2.0203,3.5355 -13.6371,35.3553 -14.6472,40.4061 -1.0102,5.0507 15.1523,18.1827 23.2335,17.6776 8.0812,-0.505 43.9416,-5.5558 48.4873,-15.6573 4.5457,-10.1016 27.7792,-73.7412 15.6574,-121.7234 -12.1218,-47.9823 -20.7081,-81.3173 -43.4366,-80.8122 -22.7284,0.5051 -26.2639,4.0406 -29.2944,14.1421 z"
         style="fill:#aad400;fill-opacity:1;fill-rule:evenodd;stroke:none;stroke-width:1px;stroke-linecap:butt;stroke-linejoin:miter;stroke-opacity:1" />
      <path
         sodipodi:nodetypes="csscsccssssscsscsssccssssscscc"
         inkscape:connector-curvature="0"
         id="path8371"
         d="m 872.90032,40.6421 c 0,0 -5.5559,18.1827 -7.5762,23.2335 -2.0203,5.0507 -12.1218,16.6675 -17.6776,20.7081 -5.5559,4.0406 -13.132,7.0711 -15.1523,10.1015 -2.0203,3.0305 -5.5559,10.1016 -7.0711,13.6371 -1.5152,3.5355 2.0203,5.0507 -4.0406,7.0711 -6.0609,2.0203 -3.5355,2.0203 -11.1117,4.5456 -7.5761,2.5254 -8.5863,6.061 -15.6573,3.0305 -7.0711,-3.0305 -12.627,-4.0406 -14.6473,-11.1117 -2.0203,-7.071 -4.5456,-6.566 -2.0203,-22.7284 2.5254,-16.1625 5.0508,-36.8706 3.0305,-46.467 -2.0203,-9.5965 -13.132,-25.7589 -14.6472,-39.9011 -1.5152,-14.1421 4.0406,-21.2132 4.0406,-21.2132 0,0 -16.6675,-7.071 -19.1929,-14.1421 -2.5254,-7.0711 8.5863,-9.0914 14.6472,-9.0914 l 23.2335,0 c 0,0 -14.0001,-9.4294 -16.0452,-13.4891 0,0 -5.168,-4.6936 8.4691,-6.7139 13.637,-2.0203 19.1929,-1.5152 33.8401,1.5152 14.6472,3.0305 22.7284,9.5965 25.7589,12.1218 3.0304,2.5254 5.0507,7.0711 6.566,10.1016 1.5152,3.0304 24.2436,12.1218 33.335,18.6878 9.0914,6.566 33.8401,24.7487 38.3858,42.9315 4.5457,18.1827 7.5761,46.467 1.5152,59.0939 -6.0609,12.6269 -12.1218,30.8096 -17.1726,36.3655 -5.0507,5.5558 -28.7893,11.6167 -40.4061,18.1827 -11.6167,6.566 -22.2233,13.6371 -25.7589,17.1726 -3.5355,3.5356 12.6269,-32.8299 12.6269,-52.0228 0,-19.1929 21.2133,-29.7995 21.7183,-38.8909 0.5051,-9.0914 1.0102,-22.7284 1.0102,-22.7284 z"
         style="fill:#eeffaa;fill-opacity:1;fill-rule:evenodd;stroke:#000000;stroke-width:1.5;stroke-linecap:butt;stroke-linejoin:miter;stroke-miterlimit:4;stroke-dasharray:none;stroke-opacity:1" />
      <path
         sodipodi:nodetypes="cssscssssssccscscc"
         inkscape:connector-curvature="0"
         id="path8373"
         d="m 791.77992,120.975 c 0.5795,0 2.2608,-0.2878 4.0775,-0.5572 1.5423,-0.2286 3.8255,-1.216 7.3511,-4.0856 7.6786,-6.25 8.2143,-9.4643 11.9643,-17.6786 3.75,-8.2143 -1.0714,-9.6428 9.8214,-13.0357 10.8929,-3.3928 13.5715,-0.5357 25.3572,-10 11.7857,-9.4643 17.0741,-16.6504 18.5027,-24.1504 1.4286,-7.5 1.5025,-11.0536 2.5739,-14.8036 1.0714,-3.75 5.3519,17.3469 1.9591,26.0969 -3.3929,8.75 -4.8214,14.1071 -8.75,21.0714 -3.9286,6.9643 -1.6072,6.4286 -6.6072,10 -5,3.5714 -5.1785,-15.3571 -8.2142,-11.7857 -3.0358,3.5714 -13.75,11.25 -17.8572,15.3571 -4.1071,4.1072 -3.75,1.9643 -6.0714,8.2143 -2.3214,6.25 -0.045,7.8896 -4.2857,10.3572 -6.0715,3.0357 -7.3766,4.1535 -11.7857,6.0714 -2.8444,1.2373 -7.8972,2.6983 -9.8215,2.5 -6.7857,-0.8929 -7.3214,-0.1786 -8.2143,-3.5715 z"
         style="fill:#ddff55;fill-rule:evenodd;stroke:none;stroke-width:1px;stroke-linecap:butt;stroke-linejoin:miter;stroke-opacity:1" />
      <path
         sodipodi:nodetypes="csccscsscsccscccccsccsscscsccc"
         inkscape:connector-curvature="0"
         id="path8375"
         d="m 788.98037,120.7929 c 0,0 5.09265,-0.6408 12.86607,-5.0996 7.43509,-4.2648 7.8775,-6.3127 9.1402,-8.9643 1.2627,-2.6517 3.97198,-1.9975 2.07788,1.1592 -1.894,3.1567 -5.7697,6.1486 -8.5476,8.5477 -2.7779,2.3991 -6.39163,4.3713 -8.53813,5.0026 -2.1466,0.6313 -3.89067,2.0361 -0.98647,2.2886 2.9042,0.2525 11.9955,-0.6313 16.6675,-2.9042 4.6719,-2.2728 10.8591,-4.1669 11.8693,-6.8185 1.0101,-2.6517 1.2627,-4.0406 3.283,-8.9651 2.0203,-4.9245 1.1364,-4.0406 3.4092,-6.1872 2.2729,-2.1466 19.3192,-17.1726 19.9505,-17.2989 0.6314,-0.1262 2.0204,0.5051 2.778,3.9144 0.7576,3.4092 1.1364,5.5558 0.1262,8.8388 -1.0101,3.283 -2.0203,8.8389 -2.1465,11.3642 -0.1263,2.5254 -4.2932,19.698 -4.2932,19.698 0,0 4.1669,-25.6326 4.2932,-28.2843 0.1262,-2.6516 0.6313,-13.637 0,-13.7633 -0.6314,-0.1263 -17.9302,13.132 -20.2031,16.9201 -2.2728,3.788 -4.0406,9.0913 -5.0508,11.6167 -1.0101,2.5254 0.6314,3.6618 -3.2829,5.5559 -3.9144,1.894 -7.955,5.177 -14.8998,6.4397 -6.9448,1.2627 -11.6168,2.1466 -15.6574,0.3788 -4.0406,-1.7678 -9.2176,-5.3033 -11.8693,-9.3439 -2.6516,-4.0406 -3.6618,-9.4702 -3.6618,-11.3642 0,-1.8941 2.9042,-20.0768 2.9042,-20.0768 0,0 -2.9042,13.7633 -1.6415,19.0666 1.2627,5.3033 1.1365,4.672 1.8941,5.177 0.7576,0.5051 -0.6314,1.5153 0.6313,4.1669 1.2627,2.6517 3.07945,7.9249 8.88785,8.9351 z"
         style="fill:#000000;fill-opacity:1;fill-rule:evenodd;stroke:none;stroke-width:1px;stroke-linecap:butt;stroke-linejoin:miter;stroke-opacity:1" />
      <path
         inkscape:connector-curvature="0"
         id="path8415"
         d="m 969.87492,267.9264 c 0,0 22.7284,53.5381 35.35528,60.1041 12.6269,6.566 9.5965,46.9721 5.5559,62.1244 -4.0407,15.1523 -7.0711,30.8096 -9.5965,32.3249 -2.52538,1.5152 -7.07108,-4.0406 -7.57608,0.505 -0.5051,4.5457 -5.0508,18.1828 -3.5356,21.2132 1.5153,3.0305 16.66748,10.6067 28.28428,10.1016 11.6168,-0.5051 26.769,-27.2741 31.8198,-46.467 5.0508,-19.1929 8.0812,-57.5787 2.0203,-70.2056 -6.0609,-12.627 -15.1523,-26.7691 -26.264,-48.9924 -11.1116,-22.2234 -16.1624,-47.4772 -56.06338,-20.7082 z"
         style="fill:#aad400;fill-opacity:1;fill-rule:evenodd;stroke:none;stroke-width:1px;stroke-linecap:butt;stroke-linejoin:miter;stroke-opacity:1" />
      <path
         sodipodi:nodetypes="cscsssssssscc"
         inkscape:connector-curvature="0"
         id="path8423"
         d="m 804.45852,-55.8106 c 19.2857,-11.6072 20.5357,-13.9286 44.4643,-18.5715 23.9286,-4.6429 35.7143,-1.7857 35.7143,-1.7857 0,0 51.0714,7.5 67.8571,37.1429 16.7857,29.6428 26.0715,49.2857 28.5715,64.2857 2.5,15 10.3571,46.4285 5.7142,63.5714 -4.6428,17.1429 -7.8571,18.9286 -13.5714,34.2857 -5.7143,15.3572 -16.4286,15.3572 -10,31.4286 6.4286,16.0714 -2.1428,32.5 -8.9286,31.0714 -6.7857,-1.4286 -28.2142,-30.3571 -30,-61.0714 -1.7857,-30.7143 -15.1807,-118.9689 -33.395,-135.3974 -18.2143,-16.4286 -30.8504,-18.8989 -44.8805,-26.0058 -36.5312,-10.1245 -101.0357,26.1408 -41.5459,-18.9539 z"
         style="fill:#0000ff;fill-rule:evenodd;stroke:none;stroke-width:1px;stroke-linecap:butt;stroke-linejoin:miter;stroke-opacity:1" />
      <path
         sodipodi:nodetypes="csssscssssssssssscccsscssssssssssc"
         inkscape:connector-curvature="0"
         id="path8377"
         d="m 844.99422,124.5465 c 0,0 -25.7143,42.8571 -26.4285,60.7143 -0.7143,17.8571 5.1887,65.689 11.0714,76.9642 6.4285,12.3215 27.1428,37.8572 33.5714,49.6429 15.8448,29.049 9.6429,61.9643 6.0714,75.5357 -3.5714,13.5715 -8.5714,30.7143 -8.5714,30.7143 0,0 -12.1428,-0.7143 -12.8571,3.5714 -0.7143,4.2858 -13.5715,28.5715 -13.5715,36.4286 0,7.8572 10,17.8572 15.7143,16.4286 5.7143,-1.4286 37.1429,-2.8572 46.4286,-8.5714 9.2857,-5.7143 17.1429,-26.4286 17.1429,-35.7143 0,-9.2857 -0.7143,-15 -2.1429,-44.2857 -1.4286,-29.2858 -2.8571,-76.4286 3.5714,-81.4286 6.4286,-5 49.2857,-24.2857 60.7143,-25 11.4286,-0.7143 25.71428,-2.8572 30.71428,9.2857 5,12.1429 15,34.2857 22.8571,42.1429 7.8572,7.8571 13.5715,9.2857 11.4286,25.7142 -2.1428,16.4286 -10.7143,61.0715 -12.8571,66.7858 -2.1429,5.7143 -7.5001,3.2143 -7.5001,3.2143 0,0 -3.2142,17.4999 -4.9999,19.6428 -1.7857,2.1428 -0.7143,13.9286 2.8571,16.4286 3.5714,2.5 22.8572,5.7143 32.8572,3.5714 10,-2.1429 18.9285,-3.9286 21.7857,-9.2857 2.8571,-5.3572 2.8571,-7.8572 6.4285,-35.3572 3.5715,-27.5 5.7143,-73.2142 2.1429,-80.7142 -3.5714,-7.5 -17.5,-29.2858 -11.4286,-43.2143 6.0715,-13.9286 20.7143,-56.0715 20,-78.9286 -0.7143,-22.8571 -6.4285,-46.4286 -20.7143,-57.1429 -14.2857,-10.7142 -5,-14.2857 -37.8571,-10 -32.85708,4.2858 -44.28568,15.7143 -70.71428,13.5715 -26.4286,-2.1429 -33.5714,-81.4286 -37.8571,-111.4286 -4.2857,-30 -21.6675,-52.1651 -29.5247,-61.4508 -7.8571,-9.2857 0.9532,73.5937 -11.9039,88.5937 -12.8571,15 -23.5714,31.4285 -36.4286,43.5714 z"
         style="fill:#eeffaa;fill-opacity:1;fill-rule:evenodd;stroke:none;stroke-width:1px;stroke-linecap:butt;stroke-linejoin:miter;stroke-opacity:1" />
      <path
         sodipodi:nodetypes="cccsscsc"
         inkscape:connector-curvature="0"
         id="path8379"
         d="m 848.20852,421.3322 c -1.0714,1.7857 -11.4286,28.5714 -12.1428,31.7857 -0.7143,3.2143 6.7857,12.8572 11.7857,13.5714 5,0.7143 36.0714,-2.1428 40.7143,-4.2857 4.6428,-2.1428 14.6427,-5.4087 18.5713,-23.9286 l 2.5001,-11.7857 c 0,0 -16.7857,6.4286 -32.5,5.7143 -15.7143,-0.7143 -20,-3.9285 -28.9286,-11.0714 z"
         style="fill:#668000;fill-rule:evenodd;stroke:none;stroke-width:1px;stroke-linecap:butt;stroke-linejoin:miter;stroke-opacity:1" />
      <path
         sodipodi:nodetypes="cssssssc"
         inkscape:connector-curvature="0"
         id="path8381"
         d="m 1022.8514,429.9036 c 0,0 -4.2857,16.0715 -5,20.7143 -0.7143,4.6429 1.4285,10.3572 13.2143,10.7143 11.7857,0.3571 29.2857,-2.1429 34.2857,-3.9286 5,-1.7857 6.4285,-4.2857 8.2143,-16.7857 1.7857,-12.5 2.1428,-16.4286 2.1428,-18.5714 0,-2.1429 -7.8571,8.9285 -19.2857,11.4285 -11.4286,2.5 -11.0714,7.5001 -33.5714,-3.5714 z"
         style="fill:#668000;fill-opacity:1;fill-rule:evenodd;stroke:none;stroke-width:1px;stroke-linecap:butt;stroke-linejoin:miter;stroke-opacity:1" />
      <path
         sodipodi:nodetypes="ccssssssssc"
         inkscape:connector-curvature="0"
         id="path8429"
         d="m 844.99422,-72.2393 c 2.1428,-0.3571 35,-5 42.1428,-3.9285 7.1429,1.0714 32.1429,9.2857 42.8572,19.6428 10.7143,10.3572 26.0714,40.3572 31.0714,51.7857 5,11.4286 16.7857,56.4286 15.3572,69.6429 -1.4286,13.2143 -6.0715,31.0714 -11.7858,44.2857 -5.7142,13.2143 -10,15.3571 -11.7857,24.6429 -1.7857,9.2857 17.1429,-26.4286 14.2857,-65.3572 -2.8571,-38.9286 -32.1428,-96.7857 -47.8571,-112.8571 -15.7143,-16.0715 -28.9286,-18.2143 -45.7143,-22.8572 -16.7857,-4.6428 -8.5714,-7.5 -28.5714,-5 z"
         style="fill:#0064ff;fill-opacity:1;fill-rule:evenodd;stroke:none;stroke-width:1px;stroke-linecap:butt;stroke-linejoin:miter;stroke-opacity:1" />
      <g
         transform="matrix(0.66638404,-0.35830958,0.35830958,0.66638404,-217.3276,-1682.0133)"
         id="g8408">
        <path
           style="fill:#ffffff;fill-rule:evenodd;stroke:#000000;stroke-width:1px;stroke-linecap:butt;stroke-linejoin:miter;stroke-opacity:1"
           d="m 120.71323,2637.2916 c -1.76777,2.2728 -3.53553,7.071 -2.77792,9.5964 0.75761,2.5254 4.04061,12.6269 10.6066,12.6269 6.56599,0 15.9099,0 20.96067,-6.3134 5.05076,-6.3135 5.05076,-6.3135 2.52538,-9.344 -5.76342,-5.1526 -20.93041,-6.2728 -31.31473,-6.5659 z"
           id="path8383"
           inkscape:connector-curvature="0"
           sodipodi:nodetypes="cssscc" />
        <path
           style="fill:#00ffff;fill-rule:evenodd;stroke:#000000;stroke-width:1px;stroke-linecap:butt;stroke-linejoin:miter;stroke-opacity:1"
           d="m 133.03571,2638.6122 c 0,0 -2.94642,1.4286 -3.48214,3.125 -0.53571,1.6964 -1.60714,3.2143 -1.16071,7.7679 0.44643,4.5535 2.94643,7.1428 4.10714,8.125 1.16071,0.9821 6.875,2.0535 8.66071,2.3214 1.78572,0.2679 9.10715,-1.6964 11.96429,-5.5357 2.85714,-3.8393 4.01786,-10.8036 1.42857,-12.3214 -2.58928,-1.5179 -19.46428,-4.5536 -21.51786,-3.4822 z"
           id="path8387"
           inkscape:connector-curvature="0"
           clip-path="url(#clipPath8404)" />
        <path
           style="fill:#000000;fill-opacity:1;fill-rule:evenodd;stroke:none;stroke-width:1px;stroke-linecap:butt;stroke-linejoin:miter;stroke-opacity:1"
           d="m 140.53571,2641.7372 c -0.625,0.089 -3.01217,0.1441 -4.55357,1.4286 0,0 -2.05356,4.375 -1.07142,6.4286 0.98214,2.0536 2.76785,4.6428 5.53571,4.2857 2.76786,-0.3572 5.80357,-1.25 6.42857,-3.2143 0.625,-1.9643 1.07143,-3.4822 0,-5.625 -1.07143,-2.1429 -5.17857,-3.4822 -6.33929,-3.3036 z"
           id="path8385"
           inkscape:connector-curvature="0"
           sodipodi:nodetypes="csscscc" />
      </g>
      <path
         sodipodi:nodetypes="cscsccccscccccc"
         inkscape:connector-curvature="0"
         id="path8417"
         d="m 811.32919,30.2598 c 3.63923,-2.0337 13.96002,-5.2111 18.34863,-5.5323 4.38848,-0.3211 6.95729,-1.6055 9.20506,-2.6758 2.24777,-1.0704 4.28155,-2.3549 6.95741,-0.2141 2.67586,2.1407 4.17438,3.9604 4.17438,3.9604 0,0 -4.81658,-7.4926 -7.06435,-8.0279 -2.24777,-0.5351 -5.887,-1.2844 -7.49256,-0.321 -1.60557,0.9632 1.92661,-2.2478 5.88699,-2.1407 3.96039,0.1067 6.63626,1.6054 7.27846,2.3547 0.6422,0.7492 1.60556,1.7126 1.60556,1.7126 0,0 0.1067,-3.5322 -3.53217,-5.0307 -3.63923,-1.4985 -7.17152,-2.676 -9.52622,-1.9267 -2.35482,0.7492 -7.92078,5.673 -11.88117,8.2418 -3.96027,2.5689 -6.95729,5.3518 -10.81062,6.4223 -9.3114,3.5732 -7.81037,8.5778 -3.1494,3.1774 z"
         style="fill:#000000;fill-opacity:1;fill-rule:evenodd;stroke:none;stroke-width:1px;stroke-linecap:butt;stroke-linejoin:miter;stroke-opacity:1" />
      <path
         inkscape:connector-curvature="0"
         id="path8419"
         d="m 829.45852,-16.5249 c -1.0714,-0.5358 -37.8571,-24.2858 -40.1786,-25.8929 -2.3214,-1.6071 -13.9285,-9.4643 -15.1785,-12.5 -1.25,-3.0357 -2.1429,-3.2143 0.7143,-4.6429 2.8571,-1.4285 17.1428,-4.6428 30.1785,-2.3214 13.0357,2.3214 22.5,4.2857 30,9.2857 7.5,5 10.8929,11.25 12.3215,14.4643 1.4285,3.2143 9.1071,11.25 10.8928,18.75 1.7857,7.5 -8.5714,10.3572 -28.75,2.8572 z"
         style="fill:#eeffaa;fill-opacity:1;fill-rule:evenodd;stroke:none;stroke-width:1px;stroke-linecap:butt;stroke-linejoin:miter;stroke-opacity:1" />
      <path
         inkscape:connector-curvature="0"
         id="path8425"
         d="m 796.77992,89.5465 c 0,0 -2.1428,4.6428 -2.1428,6.0714 0,1.4286 2.8571,0 3.5714,-2.5 0.7143,-2.5 3.2143,-5.3571 -1.4286,-3.5714 z"
         style="fill:#000000;fill-opacity:1;fill-rule:evenodd;stroke:#000000;stroke-width:1px;stroke-linecap:butt;stroke-linejoin:miter;stroke-opacity:1" />
      <path
         inkscape:connector-curvature="0"
         id="path8427"
         d="m 783.24922,112.3629 c 2.0203,2.0203 7.0711,4.5457 8.0813,0.5051 1.0101,-4.0406 -3.283,-10.8592 -1.5153,-16.9201 1.7678,-6.0609 7.3236,-23.2335 8.5863,-28.5368 1.2627,-5.3033 -4.5457,-35.3553 -4.5457,-44.4467 0,-9.0914 -4.0406,-19.4454 1.2627,-29.2944 5.3033,-9.849 6.8186,-26.7691 -1.0101,-22.7285 -7.8287,4.0406 -15.6574,9.849 -19.698,16.6676 -4.0406,6.8185 -5.3033,12.6269 -2.5254,21.4657 2.7779,8.8388 9.849,25.5063 11.1117,31.5673 1.2627,6.0609 2.0203,20.7081 -0.5051,34.3452 -2.5254,13.637 -4.7982,23.9911 -3.283,28.2842 1.5153,4.2932 0.2526,6.8186 4.0406,9.0914 z"
         style="fill:#eeffd8;fill-opacity:1;fill-rule:evenodd;stroke:none;stroke-width:1px;stroke-linecap:butt;stroke-linejoin:miter;stroke-opacity:1" />
      <path
         sodipodi:nodetypes="csssssscscssssscc"
         inkscape:connector-curvature="0"
         id="path8431"
         d="m 1056.7799,151.3322 c 0,0 8.2143,18.9286 13.5715,11.4286 5.3571,-7.5 30,-40.3572 53.2143,-25.3572 23.2142,15 51.4285,25.3572 48.9285,53.9286 -2.5,28.5714 6.7857,33.5714 -12.8571,53.9286 -19.6429,20.3571 -35.3572,30.7143 -42.5,33.9285 -7.1429,3.2143 41.7857,-0.3571 59.6428,-10 17.8572,-9.6428 22.9797,-20.2705 22.9797,-20.2705 0,0 10.1675,-6.8538 39.1632,-8.658 9.8985,-0.6159 11.1581,-22.0382 11.1581,-22.0382 0,0 16.3419,-6.8904 12.0562,-31.8904 -4.2857,-25 -36.3927,-79.6683 -50.3212,-93.2397 -13.9286,-13.5714 -24.3646,-23.6463 -42.5,-29.2857 -11.3201,-3.5201 -28.5746,-6.9875 -47.5032,-0.9161 -18.9285,6.0714 -36.0862,25.9253 -43.5863,36.0146 -4.9877,6.7097 -11.9008,32.4269 -13.3293,39.2126 -1.4286,6.7857 -6.3314,10 -8.1172,13.2143 z"
         style="fill:#0000ff;fill-opacity:1;fill-rule:evenodd;stroke:none;stroke-width:1px;stroke-linecap:butt;stroke-linejoin:miter;stroke-opacity:1" />
      <path
         sodipodi:nodetypes="csssssscc"
         inkscape:connector-curvature="0"
         id="path8433"
         d="m 1153.7227,276.5127 c 0,0 26.264,-4.2932 37.8807,-18.4353 11.6168,-14.1421 21.7183,-18.6878 22.981,-41.9213 1.2627,-23.2335 1.0101,-41.1637 -6.8186,-53.5381 -7.8286,-12.3744 -7.071,-19.1929 -13.3845,-23.9912 -6.3134,-4.7982 2.2729,-0.505 7.5762,20.9607 5.3033,21.4658 12.1218,41.4163 7.3236,56.316 -4.7982,14.8998 -19.4455,40.4061 -29.0419,46.7196 -9.5965,6.3134 -1.7678,8.8388 -26.5165,13.8896 z"
         style="fill:#0064ff;fill-opacity:1;fill-rule:evenodd;stroke:none;stroke-width:1px;stroke-linecap:butt;stroke-linejoin:miter;stroke-opacity:1" />
      <path
         inkscape:connector-curvature="0"
         id="path8435"
         d="m 1248.172,229.0355 c 0,0 3.5355,-2.7779 1.5152,-22.981 -2.0203,-20.203 -9.849,-52.5279 -14.6472,-60.104 -4.7983,-7.5762 -20.4556,-50.0026 -41.6688,-59.599 -21.2132,-9.5965 -36.113,-20.7082 -57.5787,-17.6777 -21.4658,3.0305 -30.8097,7.0711 -36.8706,12.3744 -6.0609,5.3033 -11.8693,10.1015 -11.8693,10.1015 0,0 9.3439,-8.0812 19.1929,-11.8693 9.849,-3.7881 34.5977,-7.0711 43.4366,-4.7982 8.8388,2.2728 38.1332,11.3642 46.2145,20.7081 8.0812,9.3439 19.9505,21.4657 29.0418,39.901 9.0914,18.4353 14.8998,34.8503 18.1828,51.0127 3.283,16.1625 5.8084,14.8998 5.0508,42.9315 z"
         style="fill:#0064ff;fill-opacity:1;fill-rule:evenodd;stroke:none;stroke-width:1px;stroke-linecap:butt;stroke-linejoin:miter;stroke-opacity:1" />
      <g
         style="fill:#aaeeff"
         transform="matrix(1.328271,-0.16236987,0.06912036,1.4773212,252.8414,-2286.7057)"
         id="g8501">
        <path
           style="fill:#aaeeff;fill-rule:evenodd;stroke:#000000;stroke-width:1;stroke-linecap:butt;stroke-linejoin:miter;stroke-miterlimit:4;stroke-dasharray:none;stroke-opacity:1"
           d="m 310.15587,1569.4207 c 0,0 -1.51742,0.7082 -1.0116,1.7198 0.50578,1.0116 0.80931,7.0814 5.56396,6.6768 4.7547,-0.4047 13.25244,-4.4512 13.65712,-8.1943 0.40467,-3.743 -0.30349,-5.8675 -2.42793,-8.2954 -2.12443,-2.4279 -6.98028,-6.3733 -7.68843,-6.171 -0.70816,0.2023 -1.01165,2.4279 -1.9221,5.7664 -0.9105,3.3384 -3.23727,6.8791 -6.17102,8.4977 z"
           id="path8460"
           inkscape:connector-curvature="0" />
        <path
           style="fill:#aaeeff;fill-rule:evenodd;stroke:#000000;stroke-width:1;stroke-linecap:butt;stroke-linejoin:miter;stroke-miterlimit:4;stroke-dasharray:none;stroke-opacity:1"
           d="m 309.65005,1570.3312 c -0.60697,-0.3035 -5.46281,-4.3501 -5.26048,-5.8675 0.2023,-1.5175 3.13604,-3.3384 4.35003,-8.9024 1.21398,-5.564 -0.40468,-9.2059 0.8093,-8.8012 1.21398,0.4046 5.66515,3.0348 6.6768,4.9569 1.01164,1.9222 2.22562,2.9338 2.12443,4.7547 -0.10114,1.821 -2.02324,8.1943 -3.94538,10.2176 -1.9221,2.0232 -3.0349,3.1361 -4.7547,3.6419 z"
           id="path8462"
           inkscape:connector-curvature="0" />
        <path
           style="fill:#aaeeff;fill-rule:evenodd;stroke:#000000;stroke-width:1;stroke-linecap:butt;stroke-linejoin:miter;stroke-miterlimit:4;stroke-dasharray:none;stroke-opacity:1"
           d="m 298.46283,1553.6072 c -0.14304,0.3576 0.28614,4.2919 1.6453,5.5795 1.35911,1.2877 4.7212,4.9359 5.43653,5.0789 0.71533,0.1431 2.93287,-7.5825 4.00588,-10.73 1.07301,-3.1475 2.86136,-2.0745 1.14452,-5.365 -1.7168,-3.2906 -3.50514,-7.3679 -5.93727,-8.3694 -2.43213,-1.0015 -3.57669,-2.7898 -3.86279,-1.7168 -0.28614,1.073 0.14305,6.2234 -0.50073,9.9431 -0.64383,3.7198 -0.64383,4.2921 -1.93144,5.5797 z"
           id="path8466"
           inkscape:connector-curvature="0" />
        <path
           style="fill:#aaeeff;fill-rule:evenodd;stroke:#000000;stroke-width:1;stroke-linecap:butt;stroke-linejoin:miter;stroke-miterlimit:4;stroke-dasharray:none;stroke-opacity:1"
           d="m 296.07361,1532.654 c 0,0 -1.11279,5.8675 -2.02329,7.9919 -0.91045,2.1244 -2.7314,3.8442 -3.33838,4.957 -0.60701,1.1128 -0.60701,2.1245 1.61862,3.7431 2.22558,1.6186 4.65351,5.7663 6.06982,5.2605 1.41628,-0.5058 3.43957,-7.9919 3.8442,-11.8362 0.40468,-3.8442 0.10115,-4.1476 -1.51746,-5.7663 -1.61862,-1.6186 -3.13604,-5.1593 -4.65351,-4.35 z"
           id="path8468"
           inkscape:connector-curvature="0" />
        <path
           style="fill:#aaeeff;fill-rule:evenodd;stroke:#000000;stroke-width:1;stroke-linecap:butt;stroke-linejoin:miter;stroke-miterlimit:4;stroke-dasharray:none;stroke-opacity:1"
           d="m 296.17476,1532.9575 c -0.10115,-0.4047 -3.54072,-4.5524 -5.26052,-5.4628 -1.71976,-0.9105 -1.71976,-1.214 -2.63026,-1.0117 -0.91045,0.2023 -6.17097,7.7896 -6.27212,8.8012 -0.10119,1.0117 1.9221,5.8675 3.03489,7.0815 1.1128,1.214 4.04654,2.7314 4.55236,3.0349 0.50582,0.3035 -0.30348,1.6186 1.21398,1.0116 1.51747,-0.6069 5.66515,-11.128 5.36167,-13.4547 z"
           id="path8470"
           inkscape:connector-curvature="0" />
        <path
           style="fill:#aaeeff;fill-rule:evenodd;stroke:#000000;stroke-width:1;stroke-linecap:butt;stroke-linejoin:miter;stroke-miterlimit:4;stroke-dasharray:none;stroke-opacity:1"
           d="m 287.7782,1526.483 c 0,0 -6.06982,-7.3849 -7.2838,-8.0931 -1.21399,-0.7081 -5.96864,3.2373 -6.06983,4.957 -0.10115,1.7198 2.32677,5.4629 4.24887,7.992 1.9221,2.5291 2.02329,3.2372 3.33842,3.2372 1.31513,0 6.87913,-5.564 6.47446,-7.0814 -0.40463,-1.5175 0.80931,-0.1012 -0.70812,-1.0117 z"
           id="path8472"
           inkscape:connector-curvature="0" />
        <path
           style="fill:#aaeeff;fill-rule:evenodd;stroke:#000000;stroke-width:1;stroke-linecap:butt;stroke-linejoin:miter;stroke-miterlimit:4;stroke-dasharray:none;stroke-opacity:1"
           d="m 265.52219,1515.5573 c 0.40464,0.5059 7.89074,7.8908 9.20587,8.0931 1.31513,0.2024 5.86748,-4.0465 5.66519,-4.8558 -0.20234,-0.8093 -2.93375,-3.8442 -4.65355,-5.0582 -1.71976,-1.214 -2.42792,-2.2256 -3.33838,-2.5291 -0.91049,-0.3035 -5.3617,-0.607 -6.87913,4.35 z"
           id="path8474"
           inkscape:connector-curvature="0" />
        <path
           style="fill:#aaeeff;fill-rule:evenodd;stroke:#000000;stroke-width:1;stroke-linecap:butt;stroke-linejoin:miter;stroke-miterlimit:4;stroke-dasharray:none;stroke-opacity:1"
           d="m 258.74421,1506.9584 c 0,0.4047 2.83259,6.171 4.04654,6.778 1.21398,0.607 2.42792,1.4163 4.24887,1.4163 1.82095,0 6.06982,-2.6303 4.65354,-4.5524 -1.41627,-1.9221 -3.23722,-4.4512 -5.26051,-5.9686 -2.02329,-1.5175 -2.42792,-2.5291 -3.74305,-2.1245 -1.31513,0.4047 -4.24888,0.4047 -3.94539,4.4512 z"
           id="path8476"
           inkscape:connector-curvature="0" />
        <path
           style="fill:#aaeeff;fill-rule:evenodd;stroke:#000000;stroke-width:1;stroke-linecap:butt;stroke-linejoin:miter;stroke-miterlimit:4;stroke-dasharray:none;stroke-opacity:1"
           d="m 259.25003,1506.9584 c -1.21398,-1.0116 -2.73141,-2.3267 -4.85584,-5.564 -2.12444,-3.2372 -4.65355,-7.2838 -4.65355,-8.1942 0,-0.9105 -0.10115,-1.1128 -0.10115,-1.1128 0,0 4.45121,1.1128 6.37331,2.2256 1.9221,1.1128 3.43957,2.9337 5.15933,4.957 1.7198,2.0233 2.93374,3.3384 3.23723,4.4512 0.30352,1.1128 -2.73141,4.1477 -5.15933,3.2372 z"
           id="path8478"
           inkscape:connector-curvature="0" />
      </g>
      <path
         inkscape:connector-curvature="0"
         id="path8546"
         d="m 846.25376,-31.5484 c -1.26269,-0.7576 -11.11167,-17.1726 -23.99112,-22.7285 -12.87944,-5.5558 -33.08249,-7.3236 -36.87057,-6.0609 -3.78807,1.2627 -10.85914,1.2627 -9.09137,3.5356 1.76777,2.2728 28.03173,20.4556 34.09265,22.7284 6.06091,2.2728 26.26397,7.8287 35.86041,2.5254 z"
         style="fill:#aad400;fill-opacity:1;fill-rule:evenodd;stroke:none;stroke-width:1px;stroke-linecap:butt;stroke-linejoin:miter;stroke-opacity:1" />
    </g>
  </g>
  <g
     inkscape:groupmode="layer"
     id="layer2"
     inkscape:label="UnicornWithoutHorn"
     transform="translate(-85.704464,-185.53081)"
     style="display:inline">
    <g
       id="g10195"
       transform="translate(109.79274,-5553.2795)">
      <path
         style="fill:#000000;fill-opacity:1;fill-rule:evenodd;stroke:#000000;stroke-width:1px;stroke-linecap:butt;stroke-linejoin:miter;stroke-opacity:1"
         d="m 137.31761,5980.8965 c 0,0 -11.61675,20.7081 -14.64721,25.7589 -3.03046,5.0508 -16.16244,27.2741 -16.66752,32.83 -0.50507,5.5558 -2.52538,12.1218 0.50508,36.3655 3.03046,24.2436 5.8726,45.5534 10.6066,54.5482 4.48169,8.5154 10.61024,6.8841 13.25454,25.632 0.58168,4.1241 9.97897,39.0178 11.4942,49.1193 1.51523,10.1015 -5.55584,51.0127 -9.59645,54.5482 -4.04061,3.5356 -15.15229,-0.5051 -15.15229,-0.5051 0,0 -15.15229,42.9315 -15.15229,45.962 0,3.0304 15.65737,14.6472 17.67767,16.1624 2.02031,1.5153 9.09137,18.6878 11.61676,19.1929 2.52538,0.5051 54.04316,-5.5558 56.56854,-7.5761 2.52538,-2.0203 16.16244,-16.6675 17.17259,-26.7691 1.01015,-10.1015 -0.50507,-14.1421 -0.50507,-25.2538 0,-11.1117 -3.53554,-104.5508 -0.50508,-109.6015 3.03046,-5.0508 52.02285,-24.2437 55.55839,-24.7488 3.53553,-0.505 23.73858,39.9011 27.27412,41.4163 3.53553,1.5152 10.82757,6.4397 11.33265,9.4702 0.50507,3.0304 5.5874,27.8423 3.06202,36.4286 -2.52538,8.5862 -8.33376,46.5301 -10.35406,48.0454 -2.02031,1.5152 -8.08122,-3.5356 -9.59645,-1.0102 -1.51523,2.5254 -4.54569,28.7894 -4.54569,28.7894 0,0 22.72843,7.5761 25.75889,9.5964 3.03046,2.0203 2.02031,9.5965 10.6066,10.6066 8.5863,1.0102 36.87057,3.0305 42.93149,-1.0101 6.06091,-4.0406 10.10152,-2.5254 12.6269,-13.6371 2.52539,-11.1117 10.60661,-100.0051 7.07107,-111.1168 -3.53553,-11.1116 -14.14213,-12.6269 -13.63706,-32.3249 0.50508,-19.6979 6.06092,-22.2233 13.63706,-49.4974 7.57615,-27.2741 10.10153,-21.2132 6.06092,-52.0229 -4.04061,-30.8096 -9.59645,-38.3858 -14.14214,-42.4264 -4.54569,-4.0406 -18.68782,-19.1929 -22.72843,-19.1929 -4.04061,0 -14.07034,1.8111 -35.78862,5.3466 -21.71828,3.5356 -26.5883,10.8158 -40.73044,11.3209 -14.14213,0.5051 -17.42513,1.0102 -22.47589,-2.0203 -5.05076,-3.0304 -23.73859,-38.8908 -26.26397,-63.6396 -2.52538,-24.7487 -3.03045,-54.0431 -12.12183,-70.7107 -9.09137,-16.6675 -40.91118,-51.0127 -50.00255,-56.0634 -9.09137,-5.0508 -10.6066,-6.566 -24.24366,-8.5863 -13.63706,-2.0203 -45.456859,1.0101 -54.548239,3.0304 -9.09137,2.0203 -20.42402,15.9099 -22.44432,20.9607 -2.02031,5.0507 -1.60994,25.5063 1.92559,33.5876 3.53554,8.0812 11.11168,19.1929 11.11168,24.7487 0,5.5558 -2.2097,45.9619 -3.21985,50.0026 -1.01016,4.0406 -2.52539,23.2335 7.07106,27.7792 9.59645,4.5456 21.21321,7.071 29.799499,3.0304 8.5863,-4.0406 12.62691,-8.0812 14.64722,-13.132 2.0203,-5.0507 8.08122,-16.6675 15.65736,-22.2233 7.57614,-5.5559 8.08122,2.0203 7.57614,8.0812 -0.50507,6.0609 -2.0203,17.1726 -3.53553,20.7081 z"
         id="path9938"
         inkscape:connector-curvature="0"
         sodipodi:nodetypes="cssssssccscssssscssscscscsssssssssscssssssssssssssc" />
      <path
         style="fill:#aad400;fill-opacity:1;fill-rule:evenodd;stroke:none;stroke-width:1px;stroke-linecap:butt;stroke-linejoin:miter;stroke-opacity:1"
         d="m 119.68445,6117.0015 c 0.5051,2.5254 10.1015,23.2335 12.6269,37.8807 2.5254,14.6473 14.6472,51.5178 13.6371,61.1143 -1.0102,9.5964 -7.5762,36.8705 -11.6168,43.9416 -4.0406,7.0711 -12.6269,-0.5051 -14.6472,3.0305 -2.0203,3.5355 -13.6371,35.3553 -14.6472,40.4061 -1.0102,5.0507 15.1523,18.1827 23.2335,17.6776 8.0812,-0.505 43.9416,-5.5558 48.4873,-15.6573 4.5457,-10.1016 27.7792,-73.7412 15.6574,-121.7234 -12.1218,-47.9823 -20.7081,-81.3173 -43.4366,-80.8122 -22.7284,0.5051 -26.2639,4.0406 -29.2944,14.1421 z"
         id="path9782"
         inkscape:connector-curvature="0" />
      <path
         style="fill:#eeffaa;fill-opacity:1;fill-rule:evenodd;stroke:#000000;stroke-width:1.5;stroke-linecap:butt;stroke-linejoin:miter;stroke-miterlimit:4;stroke-dasharray:none;stroke-opacity:1"
         d="m 162.11085,5903.3543 c 0,0 -5.5559,18.1827 -7.5762,23.2335 -2.0203,5.0507 -12.1218,16.6675 -17.6776,20.7081 -5.5559,4.0406 -13.132,7.0711 -15.1523,10.1015 -2.0203,3.0305 -5.5559,10.1016 -7.0711,13.6371 -1.5152,3.5355 2.0203,5.0507 -4.0406,7.0711 -6.0609,2.0203 -3.5355,2.0203 -11.1117,4.5456 -7.5761,2.5254 -8.5863,6.061 -15.6573,3.0305 -7.0711,-3.0305 -12.627,-4.0406 -14.6473,-11.1117 -2.0203,-7.071 -4.5456,-6.566 -2.0203,-22.7284 2.5254,-16.1625 5.0508,-36.8706 3.0305,-46.467 -2.0203,-9.5965 -13.132,-25.7589 -14.6472,-39.9011 -1.5152,-14.1421 4.0406,-21.2132 4.0406,-21.2132 0,0 -16.6675,-7.071 -19.1929,-14.1421 -2.5254,-7.0711 8.5863,-9.0914 14.6472,-9.0914 l 23.2335,0 c 0,0 -14.0001,-9.4294 -16.0452,-13.4891 0,0 -5.168,-4.6936 8.4691,-6.7139 13.637,-2.0203 19.1929,-1.5152 33.8401,1.5152 14.6472,3.0305 22.7284,9.5965 25.7589,12.1218 3.0304,2.5254 5.0507,7.0711 6.566,10.1016 1.5152,3.0304 24.2436,12.1218 33.335,18.6878 9.0914,6.566 33.8401,24.7487 38.3858,42.9315 4.5457,18.1827 7.5761,46.467 1.5152,59.0939 -6.0609,12.6269 -12.1218,30.8096 -17.1726,36.3655 -5.0507,5.5558 -28.7893,11.6167 -40.4061,18.1827 -11.6167,6.566 -22.2233,13.6371 -25.7589,17.1726 -3.5355,3.5356 12.6269,-32.8299 12.6269,-52.0228 0,-19.1929 21.2133,-29.7995 21.7183,-38.8909 0.5051,-9.0914 1.0102,-22.7284 1.0102,-22.7284 z"
         id="path9784"
         inkscape:connector-curvature="0"
         sodipodi:nodetypes="csscsccssssscsscsssccssssscscc" />
      <path
         style="fill:#ddff55;fill-rule:evenodd;stroke:none;stroke-width:1px;stroke-linecap:butt;stroke-linejoin:miter;stroke-opacity:1"
         d="m 80.99045,5983.6872 c 0.5795,0 2.2608,-0.2878 4.0775,-0.5572 1.5423,-0.2286 3.8255,-1.216 7.3511,-4.0856 7.6786,-6.25 8.2143,-9.4643 11.9643,-17.6786 3.75,-8.2143 -1.0714,-9.6428 9.8214,-13.0357 10.8929,-3.3928 13.5715,-0.5357 25.3572,-10 11.7857,-9.4643 17.0741,-16.6504 18.5027,-24.1504 1.4286,-7.5 1.5025,-11.0536 2.5739,-14.8036 1.0714,-3.75 5.3519,17.3469 1.9591,26.0969 -3.3929,8.75 -4.8214,14.1071 -8.75,21.0714 -3.9286,6.9643 -1.6072,6.4286 -6.6072,10 -5,3.5714 -5.1785,-15.3571 -8.2142,-11.7857 -3.0358,3.5714 -13.75,11.25 -17.8572,15.3571 -4.1071,4.1072 -3.75,1.9643 -6.0714,8.2143 -2.3214,6.25 -0.045,7.8896 -4.2857,10.3572 -6.0715,3.0357 -7.3766,4.1535 -11.7857,6.0714 -2.8444,1.2373 -7.8972,2.6983 -9.8215,2.5 -6.7857,-0.8929 -7.3214,-0.1786 -8.2143,-3.5715 z"
         id="path9786"
         inkscape:connector-curvature="0"
         sodipodi:nodetypes="cssscssssssccscscc" />
      <path
         style="fill:#000000;fill-opacity:1;fill-rule:evenodd;stroke:none;stroke-width:1px;stroke-linecap:butt;stroke-linejoin:miter;stroke-opacity:1"
         d="m 79.90965,5983.6614 c 0,0 4.587719,-5.1694 12.77685,-7.7007 5.201525,-1.6077 8.2011,0.038 12.19818,-0.3476 2.16385,0.8775 4.99545,1.9395 2.16385,0.8775 -1.894,3.1567 -8.72898,0.1479 -12.991255,1.297 -5.542779,1.0178 -10.492081,10.2329 6.813075,5.7475 4.6719,-2.2728 10.8591,-4.1669 11.8693,-6.8185 1.0101,-2.6517 1.2627,-4.0406 3.283,-8.9651 2.0203,-4.9245 1.1364,-4.0406 3.4092,-6.1872 2.2729,-2.1466 19.3192,-17.1726 19.9505,-17.2989 0.6314,-0.1262 2.0204,0.5051 2.778,3.9144 0.7576,3.4092 1.1364,5.5558 0.1262,8.8388 -1.0101,3.283 -2.0203,8.8389 -2.1465,11.3642 -0.1263,2.5254 -4.2932,19.698 -4.2932,19.698 0,0 4.1669,-25.6326 4.2932,-28.2843 0.1262,-2.6516 0.6313,-13.637 0,-13.7633 -0.6314,-0.1263 -17.9302,13.132 -20.2031,16.9201 -2.2728,3.788 -4.0406,9.0913 -5.0508,11.6167 -1.0101,2.5254 0.6314,3.6618 -3.2829,5.5559 -3.9144,1.894 -7.955,5.177 -14.8998,6.4397 -6.9448,1.2627 -11.6168,2.1466 -15.6574,0.3788 -4.0406,-1.7678 -9.2176,-5.3033 -11.8693,-9.3439 -2.6516,-4.0406 -3.6618,-9.4702 -3.6618,-11.3642 0,-1.8941 2.9042,-20.0768 2.9042,-20.0768 0,0 -2.9042,13.7633 -1.6415,19.0666 1.2627,5.3033 1.1365,4.672 1.8941,5.177 0.7576,0.5051 -0.6314,1.5153 0.6313,4.1669 1.2627,2.6517 4.7982,8.0812 10.6066,9.0914 z"
         id="path9788"
         inkscape:connector-curvature="0"
         sodipodi:nodetypes="cscccccsccscccccsccsscscsccc" />
      <path
         style="fill:#aad400;fill-opacity:1;fill-rule:evenodd;stroke:none;stroke-width:1px;stroke-linecap:butt;stroke-linejoin:miter;stroke-opacity:1"
         d="m 259.08545,6130.6386 c 0,0 22.7284,53.5381 35.3553,60.1041 12.6269,6.566 9.5965,46.9721 5.5559,62.1244 -4.0407,15.1523 -7.0711,30.8096 -9.5965,32.3249 -2.5254,1.5152 -7.0711,-4.0406 -7.5761,0.505 -0.5051,4.5457 -5.0508,18.1828 -3.5356,21.2132 1.5153,3.0305 16.6675,10.6067 28.2843,10.1016 11.6168,-0.5051 26.769,-27.2741 31.8198,-46.467 5.0508,-19.1929 8.0812,-57.5787 2.0203,-70.2056 -6.0609,-12.627 -15.1523,-26.7691 -26.264,-48.9924 -11.1116,-22.2234 -16.1624,-47.4772 -56.0634,-20.7082 z"
         id="path9790"
         inkscape:connector-curvature="0" />
      <path
         style="fill:#0000ff;fill-rule:evenodd;stroke:none;stroke-width:1px;stroke-linecap:butt;stroke-linejoin:miter;stroke-opacity:1"
         d="m 93.66905,5806.9016 c 19.2857,-11.6072 20.5357,-13.9286 44.4643,-18.5715 23.9286,-4.6429 35.7143,-1.7857 35.7143,-1.7857 0,0 51.0714,7.5 67.8571,37.1429 16.7857,29.6428 26.0715,49.2857 28.5715,64.2857 2.5,15 10.3571,46.4285 5.7142,63.5714 -4.6428,17.1429 -7.8571,18.9286 -13.5714,34.2857 -5.7143,15.3572 -16.4286,15.3572 -10,31.4286 6.4286,16.0714 -2.1428,32.5 -8.9286,31.0714 -6.7857,-1.4286 -28.2142,-30.3571 -30,-61.0714 -1.7857,-30.7143 -15.1807,-118.9689 -33.395,-135.3974 -18.2143,-16.4286 -30.8504,-18.8989 -44.8805,-26.0058 -36.5312,-10.1245 -101.0357,26.1408 -41.5459,-18.9539 z"
         id="path9792"
         inkscape:connector-curvature="0"
         sodipodi:nodetypes="cscsssssssscc" />
      <path
         style="fill:#eeffaa;fill-opacity:1;fill-rule:evenodd;stroke:none;stroke-width:1px;stroke-linecap:butt;stroke-linejoin:miter;stroke-opacity:1"
         d="m 134.20475,5987.2587 c 0,0 -25.7143,42.8571 -26.4285,60.7143 -0.7143,17.8571 5.1887,65.689 11.0714,76.9642 6.4285,12.3215 27.1428,37.8572 33.5714,49.6429 15.8448,29.049 9.6429,61.9643 6.0714,75.5357 -3.5714,13.5715 -8.5714,30.7143 -8.5714,30.7143 0,0 -12.1428,-0.7143 -12.8571,3.5714 -0.7143,4.2858 -13.5715,28.5715 -13.5715,36.4286 0,7.8572 10,17.8572 15.7143,16.4286 5.7143,-1.4286 37.1429,-2.8572 46.4286,-8.5714 9.2857,-5.7143 17.1429,-26.4286 17.1429,-35.7143 0,-9.2857 -0.7143,-15 -2.1429,-44.2857 -1.4286,-29.2858 -2.8571,-76.4286 3.5714,-81.4286 6.4286,-5 49.2857,-24.2857 60.7143,-25 11.4286,-0.7143 25.7143,-2.8572 30.7143,9.2857 5,12.1429 15,34.2857 22.8571,42.1429 7.8572,7.8571 13.5715,9.2857 11.4286,25.7142 -2.1428,16.4286 -10.7143,61.0715 -12.8571,66.7858 -2.1429,5.7143 -7.5001,3.2143 -7.5001,3.2143 0,0 -3.2142,17.4999 -4.9999,19.6428 -1.7857,2.1428 -0.7143,13.9286 2.8571,16.4286 3.5714,2.5 22.8572,5.7143 32.8572,3.5714 10,-2.1429 18.9285,-3.9286 21.7857,-9.2857 2.8571,-5.3572 2.8571,-7.8572 6.4285,-35.3572 3.5715,-27.5 5.7143,-73.2142 2.1429,-80.7142 -3.5714,-7.5 -17.5,-29.2858 -11.4286,-43.2143 6.0715,-13.9286 20.7143,-56.0715 20,-78.9286 -0.7143,-22.8571 -6.4285,-46.4286 -20.7143,-57.1429 -14.2857,-10.7142 -5,-14.2857 -37.8571,-10 -32.8571,4.2858 -44.2857,15.7143 -70.7143,13.5715 -26.4286,-2.1429 -33.5714,-81.4286 -37.8571,-111.4286 -4.2857,-30 -21.6675,-52.1651 -29.5247,-61.4508 -7.8571,-9.2857 0.9532,73.5937 -11.9039,88.5937 -12.8571,15 -23.5714,31.4285 -36.4286,43.5714 z"
         id="path9794"
         inkscape:connector-curvature="0"
         sodipodi:nodetypes="csssscssssssssssscccsscssssssssssc" />
      <path
         style="fill:#668000;fill-rule:evenodd;stroke:none;stroke-width:1px;stroke-linecap:butt;stroke-linejoin:miter;stroke-opacity:1"
         d="m 137.41905,6284.0444 c -1.0714,1.7857 -11.4286,28.5714 -12.1428,31.7857 -0.7143,3.2143 6.7857,12.8572 11.7857,13.5714 5,0.7143 36.0714,-2.1428 40.7143,-4.2857 4.6428,-2.1428 14.6427,-5.4087 18.5713,-23.9286 l 2.5001,-11.7857 c 0,0 -16.7857,6.4286 -32.5,5.7143 -15.7143,-0.7143 -20,-3.9285 -28.9286,-11.0714 z"
         id="path9796"
         inkscape:connector-curvature="0"
         sodipodi:nodetypes="cccsscsc" />
      <path
         style="fill:#668000;fill-opacity:1;fill-rule:evenodd;stroke:none;stroke-width:1px;stroke-linecap:butt;stroke-linejoin:miter;stroke-opacity:1"
         d="m 312.06195,6292.6158 c 0,0 -4.2857,16.0715 -5,20.7143 -0.7143,4.6429 1.4285,10.3572 13.2143,10.7143 11.7857,0.3571 29.2857,-2.1429 34.2857,-3.9286 5,-1.7857 6.4285,-4.2857 8.2143,-16.7857 1.7857,-12.5 2.1428,-16.4286 2.1428,-18.5714 0,-2.1429 -7.8571,8.9285 -19.2857,11.4285 -11.4286,2.5 -11.0714,7.5001 -33.5714,-3.5714 z"
         id="path9798"
         inkscape:connector-curvature="0"
         sodipodi:nodetypes="cssssssc" />
      <path
         style="fill:#0064ff;fill-opacity:1;fill-rule:evenodd;stroke:none;stroke-width:1px;stroke-linecap:butt;stroke-linejoin:miter;stroke-opacity:1"
         d="m 134.20475,5790.4729 c 2.1428,-0.3571 35,-5 42.1428,-3.9285 7.1429,1.0714 32.1429,9.2857 42.8572,19.6428 10.7143,10.3572 26.0714,40.3572 31.0714,51.7857 5,11.4286 16.7857,56.4286 15.3572,69.6429 -1.4286,13.2143 -6.0715,31.0714 -11.7858,44.2857 -5.7142,13.2143 -10,15.3571 -11.7857,24.6429 -1.7857,9.2857 17.1429,-26.4286 14.2857,-65.3572 -2.8571,-38.9286 -32.1428,-96.7857 -47.8571,-112.8571 -15.7143,-16.0715 -28.9286,-18.2143 -45.7143,-22.8572 -16.7857,-4.6428 -8.5714,-7.5 -28.5714,-5 z"
         id="path9800"
         inkscape:connector-curvature="0"
         sodipodi:nodetypes="ccssssssssc" />
      <g
         id="g9802"
         transform="matrix(0.7103952,-0.26036916,0.26036916,0.7103952,-674.61584,4051.0309)">
        <path
           sodipodi:nodetypes="cssscc"
           inkscape:connector-curvature="0"
           id="path9804"
           d="m 120.71323,2637.2916 c -1.76777,2.2728 -3.53553,7.071 -2.77792,9.5964 0.75761,2.5254 4.04061,12.6269 10.6066,12.6269 6.56599,0 15.9099,0 20.96067,-6.3134 5.05076,-6.3135 5.05076,-6.3135 2.52538,-9.344 -5.76342,-5.1526 -20.93041,-6.2728 -31.31473,-6.5659 z"
           style="fill:#ffffff;fill-rule:evenodd;stroke:#000000;stroke-width:1px;stroke-linecap:butt;stroke-linejoin:miter;stroke-opacity:1" />
        <path
           clip-path="url(#clipPath8404-5)"
           inkscape:connector-curvature="0"
           id="path9806"
           d="m 133.03571,2638.6122 c 0,0 -2.94642,1.4286 -3.48214,3.125 -0.53571,1.6964 -1.60714,3.2143 -1.16071,7.7679 0.44643,4.5535 2.94643,7.1428 4.10714,8.125 1.16071,0.9821 6.875,2.0535 8.66071,2.3214 1.78572,0.2679 9.10715,-1.6964 11.96429,-5.5357 2.85714,-3.8393 4.01786,-10.8036 1.42857,-12.3214 -2.58928,-1.5179 -19.46428,-4.5536 -21.51786,-3.4822 z"
           style="fill:#00ffff;fill-rule:evenodd;stroke:#000000;stroke-width:1px;stroke-linecap:butt;stroke-linejoin:miter;stroke-opacity:1" />
        <path
           sodipodi:nodetypes="csscscc"
           inkscape:connector-curvature="0"
           id="path9808"
           d="m 140.53571,2641.7372 c -0.625,0.089 -3.01217,0.1441 -4.55357,1.4286 0,0 -2.05356,4.375 -1.07142,6.4286 0.98214,2.0536 2.76785,4.6428 5.53571,4.2857 2.76786,-0.3572 5.80357,-1.25 6.42857,-3.2143 0.625,-1.9643 1.07143,-3.4822 0,-5.625 -1.07143,-2.1429 -5.17857,-3.4822 -6.33929,-3.3036 z"
           style="fill:#000000;fill-opacity:1;fill-rule:evenodd;stroke:none;stroke-width:1px;stroke-linecap:butt;stroke-linejoin:miter;stroke-opacity:1" />
      </g>
      <path
         style="fill:#000000;fill-opacity:1;fill-rule:evenodd;stroke:none;stroke-width:1px;stroke-linecap:butt;stroke-linejoin:miter;stroke-opacity:1"
         d="m 100.6708,5891.8972 c 4.04159,-1.0225 14.83308,-1.4204 19.15528,-0.5948 4.32205,0.8257 7.13576,0.2499 9.58395,-0.2022 2.44822,-0.4522 4.74516,-1.1665 6.77576,1.5939 2.03063,2.7603 3.00711,4.9059 3.00711,4.9059 0,0 -2.71323,-8.4839 -4.74586,-9.5828 -2.03269,-1.0986 -5.35398,-2.7643 -7.15418,-2.2492 -1.80015,0.5148 2.44274,-1.6726 6.24045,-0.5441 3.79783,1.128 5.99463,3.2682 6.42101,4.1582 0.42641,0.8899 1.1076,2.0698 1.1076,2.0698 0,0 1.01727,-3.3842 -2.10977,-5.7735 -3.12739,-2.3893 -6.23456,-4.4409 -8.70296,-4.3266 -2.46848,0.1142 -9.11916,3.4297 -13.60946,4.8859 -4.49021,1.4564 -8.10537,3.3688 -12.10447,3.4055 -9.918934,1.0415 -9.764336,6.264 -3.86446,2.254 z"
         id="path9810"
         inkscape:connector-curvature="0"
         sodipodi:nodetypes="cscsccccscccccc" />
      <path
         style="fill:#eeffaa;fill-opacity:1;fill-rule:evenodd;stroke:none;stroke-width:1px;stroke-linecap:butt;stroke-linejoin:miter;stroke-opacity:1"
         d="m 118.66905,5846.1873 c -1.0714,-0.5358 -37.8571,-24.2858 -40.1786,-25.8929 -2.3214,-1.6071 -13.9285,-9.4643 -15.1785,-12.5 -1.25,-3.0357 -2.1429,-3.2143 0.7143,-4.6429 2.8571,-1.4285 17.1428,-4.6428 30.1785,-2.3214 13.0357,2.3214 22.5,4.2857 30,9.2857 7.5,5 10.8929,11.25 12.3215,14.4643 1.4285,3.2143 9.1071,11.25 10.8928,18.75 1.7857,7.5 -8.5714,10.3572 -28.75,2.8572 z"
         id="path9812"
         inkscape:connector-curvature="0" />
      <path
         style="fill:#000000;fill-opacity:1;fill-rule:evenodd;stroke:#000000;stroke-width:1px;stroke-linecap:butt;stroke-linejoin:miter;stroke-opacity:1"
         d="m 85.99045,5952.2587 c 0,0 -2.1428,4.6428 -2.1428,6.0714 0,1.4286 2.8571,0 3.5714,-2.5 0.7143,-2.5 3.2143,-5.3571 -1.4286,-3.5714 z"
         id="path9814"
         inkscape:connector-curvature="0" />
      <path
         style="fill:#eeffd8;fill-opacity:1;fill-rule:evenodd;stroke:none;stroke-width:1px;stroke-linecap:butt;stroke-linejoin:miter;stroke-opacity:1"
         d="m 72.45975,5975.0751 c 2.0203,2.0203 7.0711,4.5457 8.0813,0.5051 1.0101,-4.0406 -3.283,-10.8592 -1.5153,-16.9201 1.7678,-6.0609 7.3236,-23.2335 8.5863,-28.5368 1.2627,-5.3033 -4.5457,-35.3553 -4.5457,-44.4467 0,-9.0914 -4.0406,-19.4454 1.2627,-29.2944 5.3033,-9.849 6.8186,-26.7691 -1.0101,-22.7285 -7.8287,4.0406 -15.6574,9.849 -19.698,16.6676 -4.0406,6.8185 -5.3033,12.6269 -2.5254,21.4657 2.7779,8.8388 9.849,25.5063 11.1117,31.5673 1.2627,6.0609 2.0203,20.7081 -0.5051,34.3452 -2.5254,13.637 -4.7982,23.9911 -3.283,28.2842 1.5153,4.2932 0.2526,6.8186 4.0406,9.0914 z"
         id="path9816"
         inkscape:connector-curvature="0" />
      <path
         style="fill:#0000ff;fill-opacity:1;fill-rule:evenodd;stroke:none;stroke-width:1px;stroke-linecap:butt;stroke-linejoin:miter;stroke-opacity:1"
         d="m 345.99045,6014.0444 c 0,0 8.2143,18.9286 13.5715,11.4286 5.3571,-7.5 30,-40.3572 53.2143,-25.3572 23.2142,15 51.4285,25.3572 48.9285,53.9286 -2.5,28.5714 6.7857,33.5714 -12.8571,53.9286 -19.6429,20.3571 -35.3572,30.7143 -42.5,33.9285 -7.1429,3.2143 41.7857,-0.3571 59.6428,-10 17.8572,-9.6428 22.9797,-20.2705 22.9797,-20.2705 0,0 10.1675,-6.8538 39.1632,-8.658 9.8985,-0.6159 11.1581,-22.0382 11.1581,-22.0382 0,0 16.3419,-6.8904 12.0562,-31.8904 -4.2857,-25 -36.3927,-79.6683 -50.3212,-93.2397 -13.9286,-13.5714 -24.3646,-23.6463 -42.5,-29.2857 -11.3201,-3.5201 -28.5746,-6.9875 -47.5032,-0.9161 -18.9285,6.0714 -36.0862,25.9253 -43.5863,36.0146 -4.9877,6.7097 -11.9008,32.4269 -13.3293,39.2126 -1.4286,6.7857 -6.3314,10 -8.1172,13.2143 z"
         id="path9818"
         inkscape:connector-curvature="0"
         sodipodi:nodetypes="csssssscscssssscc" />
      <path
         style="fill:#0064ff;fill-opacity:1;fill-rule:evenodd;stroke:none;stroke-width:1px;stroke-linecap:butt;stroke-linejoin:miter;stroke-opacity:1"
         d="m 442.93325,6139.2249 c 0,0 26.264,-4.2932 37.8807,-18.4353 11.6168,-14.1421 21.7183,-18.6878 22.981,-41.9213 1.2627,-23.2335 1.0101,-41.1637 -6.8186,-53.5381 -7.8286,-12.3744 -7.071,-19.1929 -13.3845,-23.9912 -6.3134,-4.7982 2.2729,-0.505 7.5762,20.9607 5.3033,21.4658 12.1218,41.4163 7.3236,56.316 -4.7982,14.8998 -19.4455,40.4061 -29.0419,46.7196 -9.5965,6.3134 -1.7678,8.8388 -26.5165,13.8896 z"
         id="path9820"
         inkscape:connector-curvature="0"
         sodipodi:nodetypes="csssssscc" />
      <path
         style="fill:#0064ff;fill-opacity:1;fill-rule:evenodd;stroke:none;stroke-width:1px;stroke-linecap:butt;stroke-linejoin:miter;stroke-opacity:1"
         d="m 537.38255,6091.7477 c 0,0 3.5355,-2.7779 1.5152,-22.981 -2.0203,-20.203 -9.849,-52.5279 -14.6472,-60.104 -4.7983,-7.5762 -20.4556,-50.0026 -41.6688,-59.599 -21.2132,-9.5965 -36.113,-20.7082 -57.5787,-17.6777 -21.4658,3.0305 -30.8097,7.0711 -36.8706,12.3744 -6.0609,5.3033 -11.8693,10.1015 -11.8693,10.1015 0,0 9.3439,-8.0812 19.1929,-11.8693 9.849,-3.7881 34.5977,-7.0711 43.4366,-4.7982 8.8388,2.2728 38.1332,11.3642 46.2145,20.7081 8.0812,9.3439 19.9505,21.4657 29.0418,39.901 9.0914,18.4353 14.8998,34.8503 18.1828,51.0127 3.283,16.1625 5.8084,14.8998 5.0508,42.9315 z"
         id="path9822"
         inkscape:connector-curvature="0" />
      <path
         style="fill:#aad400;fill-opacity:1;fill-rule:evenodd;stroke:none;stroke-width:1px;stroke-linecap:butt;stroke-linejoin:miter;stroke-opacity:1"
         d="m 135.46429,5831.1638 c -1.26269,-0.7576 -11.11167,-17.1726 -23.99112,-22.7285 -12.87944,-5.5558 -33.08249,-7.3236 -36.87057,-6.0609 -3.78807,1.2627 -10.85914,1.2627 -9.09137,3.5356 1.76777,2.2728 28.03173,20.4556 34.09265,22.7284 6.06091,2.2728 26.26397,7.8287 35.86041,2.5254 z"
         id="path9844"
         inkscape:connector-curvature="0" />
      <path
         inkscape:connector-curvature="0"
         id="path9878"
         d="m 117.81942,5909.1948 -5.40213,12.0754 c 0,0 -0.95333,10.8042 6.35544,10.4864 7.30877,-0.3178 5.40214,-9.2155 5.40214,-9.2155 z"
         style="fill:#80e5ff;fill-rule:evenodd;stroke:#000000;stroke-width:1px;stroke-linecap:butt;stroke-linejoin:miter;stroke-opacity:1" />
      <path
         style="fill:#668000;fill-opacity:1;fill-rule:evenodd;stroke:none;stroke-width:1px;stroke-linecap:butt;stroke-linejoin:miter;stroke-opacity:1"
         d="m 79.152355,5828.4265 c 0,0 -10.251986,-0.3014 -12.664218,8.1414 -2.412232,8.4428 4.221406,15.6795 9.04587,12.6641 4.824464,-3.0152 13.870334,-9.0458 12.664219,-13.8702 -1.206117,-4.8244 -6.33211,-7.5383 -9.045871,-6.9353 z"
         id="path9882"
         inkscape:connector-curvature="0"
         sodipodi:nodetypes="cscsc" />
      <path
         sodipodi:nodetypes="cscsc"
         inkscape:connector-curvature="0"
         id="path9880"
         d="m 78.504779,5831.056 c 0,0 -7.513009,-0.2209 -9.280776,5.9663 -1.767767,6.1872 3.093592,11.4905 6.629126,9.2807 3.535534,-2.2097 10.16466,-6.6291 9.280777,-10.1646 -0.883884,-3.5355 -4.640389,-5.5243 -6.629127,-5.0824 z"
         style="fill:#b3b3b3;fill-rule:evenodd;stroke:none;stroke-width:1px;stroke-linecap:butt;stroke-linejoin:miter;stroke-opacity:1" />
    </g>
  </g>
</svg>
